<?xml version="1.0" encoding="utf-8"?>
<svg xmlns="http://www.w3.org/2000/svg" xmlns:xlink="http://www.w3.org/1999/xlink" width="1000" height="250" viewBox="0 0 4000 1000">
<defs>
  <clipPath id="clip330">
    <rect x="0" y="0" width="4000" height="1000"/>
  </clipPath>
</defs>
<path clip-path="url(#clip330)" d="
M0 1000 L4000 1000 L4000 0 L0 0  Z
  " fill="#ffffff" fill-rule="evenodd" fill-opacity="1"/>
<defs>
  <clipPath id="clip331">
    <rect x="800" y="0" width="2801" height="1000"/>
  </clipPath>
</defs>
<path clip-path="url(#clip330)" d="
M221.583 880.48 L1930.3 880.48 L1930.3 85.6721 L221.583 85.6721  Z
  " fill="#ffffff" fill-rule="evenodd" fill-opacity="1"/>
<defs>
  <clipPath id="clip332">
    <rect x="221" y="85" width="1710" height="796"/>
  </clipPath>
</defs>
<polyline clip-path="url(#clip332)" style="stroke:#000000; stroke-linecap:butt; stroke-linejoin:round; stroke-width:2; stroke-opacity:0.1; fill:none" points="
  265.903,880.48 265.903,85.6721 
  "/>
<polyline clip-path="url(#clip332)" style="stroke:#000000; stroke-linecap:butt; stroke-linejoin:round; stroke-width:2; stroke-opacity:0.1; fill:none" points="
  669.913,880.48 669.913,85.6721 
  "/>
<polyline clip-path="url(#clip332)" style="stroke:#000000; stroke-linecap:butt; stroke-linejoin:round; stroke-width:2; stroke-opacity:0.1; fill:none" points="
  1073.92,880.48 1073.92,85.6721 
  "/>
<polyline clip-path="url(#clip332)" style="stroke:#000000; stroke-linecap:butt; stroke-linejoin:round; stroke-width:2; stroke-opacity:0.1; fill:none" points="
  1477.93,880.48 1477.93,85.6721 
  "/>
<polyline clip-path="url(#clip332)" style="stroke:#000000; stroke-linecap:butt; stroke-linejoin:round; stroke-width:2; stroke-opacity:0.1; fill:none" points="
  1881.94,880.48 1881.94,85.6721 
  "/>
<polyline clip-path="url(#clip330)" style="stroke:#000000; stroke-linecap:butt; stroke-linejoin:round; stroke-width:4; stroke-opacity:1; fill:none" points="
  221.583,880.48 1930.3,880.48 
  "/>
<polyline clip-path="url(#clip330)" style="stroke:#000000; stroke-linecap:butt; stroke-linejoin:round; stroke-width:4; stroke-opacity:1; fill:none" points="
  265.903,880.48 265.903,861.582 
  "/>
<polyline clip-path="url(#clip330)" style="stroke:#000000; stroke-linecap:butt; stroke-linejoin:round; stroke-width:4; stroke-opacity:1; fill:none" points="
  669.913,880.48 669.913,861.582 
  "/>
<polyline clip-path="url(#clip330)" style="stroke:#000000; stroke-linecap:butt; stroke-linejoin:round; stroke-width:4; stroke-opacity:1; fill:none" points="
  1073.92,880.48 1073.92,861.582 
  "/>
<polyline clip-path="url(#clip330)" style="stroke:#000000; stroke-linecap:butt; stroke-linejoin:round; stroke-width:4; stroke-opacity:1; fill:none" points="
  1477.93,880.48 1477.93,861.582 
  "/>
<polyline clip-path="url(#clip330)" style="stroke:#000000; stroke-linecap:butt; stroke-linejoin:round; stroke-width:4; stroke-opacity:1; fill:none" points="
  1881.94,880.48 1881.94,861.582 
  "/>
<path clip-path="url(#clip330)" d="M265.903 924.199 Q262.292 924.199 260.463 927.763 Q258.657 931.305 258.657 938.435 Q258.657 945.541 260.463 949.106 Q262.292 952.647 265.903 952.647 Q269.537 952.647 271.343 949.106 Q273.171 945.541 273.171 938.435 Q273.171 931.305 271.343 927.763 Q269.537 924.199 265.903 924.199 M265.903 920.495 Q271.713 920.495 274.768 925.101 Q277.847 929.685 277.847 938.435 Q277.847 947.161 274.768 951.768 Q271.713 956.351 265.903 956.351 Q260.093 956.351 257.014 951.768 Q253.958 947.161 253.958 938.435 Q253.958 929.685 257.014 925.101 Q260.093 920.495 265.903 920.495 Z" fill="#000000" fill-rule="evenodd" fill-opacity="1" /><path clip-path="url(#clip330)" d="M629.519 951.745 L637.158 951.745 L637.158 925.379 L628.848 927.046 L628.848 922.787 L637.112 921.12 L641.788 921.12 L641.788 951.745 L649.427 951.745 L649.427 955.68 L629.519 955.68 L629.519 951.745 Z" fill="#000000" fill-rule="evenodd" fill-opacity="1" /><path clip-path="url(#clip330)" d="M668.871 924.199 Q665.26 924.199 663.431 927.763 Q661.626 931.305 661.626 938.435 Q661.626 945.541 663.431 949.106 Q665.26 952.647 668.871 952.647 Q672.505 952.647 674.311 949.106 Q676.139 945.541 676.139 938.435 Q676.139 931.305 674.311 927.763 Q672.505 924.199 668.871 924.199 M668.871 920.495 Q674.681 920.495 677.737 925.101 Q680.815 929.685 680.815 938.435 Q680.815 947.161 677.737 951.768 Q674.681 956.351 668.871 956.351 Q663.061 956.351 659.982 951.768 Q656.927 947.161 656.927 938.435 Q656.927 929.685 659.982 925.101 Q663.061 920.495 668.871 920.495 Z" fill="#000000" fill-rule="evenodd" fill-opacity="1" /><path clip-path="url(#clip330)" d="M699.033 924.199 Q695.422 924.199 693.593 927.763 Q691.788 931.305 691.788 938.435 Q691.788 945.541 693.593 949.106 Q695.422 952.647 699.033 952.647 Q702.667 952.647 704.473 949.106 Q706.301 945.541 706.301 938.435 Q706.301 931.305 704.473 927.763 Q702.667 924.199 699.033 924.199 M699.033 920.495 Q704.843 920.495 707.899 925.101 Q710.977 929.685 710.977 938.435 Q710.977 947.161 707.899 951.768 Q704.843 956.351 699.033 956.351 Q693.223 956.351 690.144 951.768 Q687.088 947.161 687.088 938.435 Q687.088 929.685 690.144 925.101 Q693.223 920.495 699.033 920.495 Z" fill="#000000" fill-rule="evenodd" fill-opacity="1" /><path clip-path="url(#clip330)" d="M1037.61 951.745 L1053.93 951.745 L1053.93 955.68 L1031.99 955.68 L1031.99 951.745 Q1034.65 948.99 1039.24 944.36 Q1043.84 939.708 1045.02 938.365 Q1047.27 935.842 1048.15 934.106 Q1049.05 932.347 1049.05 930.657 Q1049.05 927.902 1047.11 926.166 Q1045.18 924.43 1042.08 924.43 Q1039.88 924.43 1037.43 925.194 Q1035 925.958 1032.22 927.509 L1032.22 922.787 Q1035.05 921.652 1037.5 921.074 Q1039.95 920.495 1041.99 920.495 Q1047.36 920.495 1050.55 923.18 Q1053.75 925.865 1053.75 930.356 Q1053.75 932.486 1052.94 934.407 Q1052.15 936.305 1050.05 938.898 Q1049.47 939.569 1046.36 942.786 Q1043.26 945.981 1037.61 951.745 Z" fill="#000000" fill-rule="evenodd" fill-opacity="1" /><path clip-path="url(#clip330)" d="M1073.75 924.199 Q1070.14 924.199 1068.31 927.763 Q1066.5 931.305 1066.5 938.435 Q1066.5 945.541 1068.31 949.106 Q1070.14 952.647 1073.75 952.647 Q1077.38 952.647 1079.19 949.106 Q1081.02 945.541 1081.02 938.435 Q1081.02 931.305 1079.19 927.763 Q1077.38 924.199 1073.75 924.199 M1073.75 920.495 Q1079.56 920.495 1082.61 925.101 Q1085.69 929.685 1085.69 938.435 Q1085.69 947.161 1082.61 951.768 Q1079.56 956.351 1073.75 956.351 Q1067.94 956.351 1064.86 951.768 Q1061.8 947.161 1061.8 938.435 Q1061.8 929.685 1064.86 925.101 Q1067.94 920.495 1073.75 920.495 Z" fill="#000000" fill-rule="evenodd" fill-opacity="1" /><path clip-path="url(#clip330)" d="M1103.91 924.199 Q1100.3 924.199 1098.47 927.763 Q1096.67 931.305 1096.67 938.435 Q1096.67 945.541 1098.47 949.106 Q1100.3 952.647 1103.91 952.647 Q1107.55 952.647 1109.35 949.106 Q1111.18 945.541 1111.18 938.435 Q1111.18 931.305 1109.35 927.763 Q1107.55 924.199 1103.91 924.199 M1103.91 920.495 Q1109.72 920.495 1112.78 925.101 Q1115.86 929.685 1115.86 938.435 Q1115.86 947.161 1112.78 951.768 Q1109.72 956.351 1103.91 956.351 Q1098.1 956.351 1095.02 951.768 Q1091.97 947.161 1091.97 938.435 Q1091.97 929.685 1095.02 925.101 Q1098.1 920.495 1103.91 920.495 Z" fill="#000000" fill-rule="evenodd" fill-opacity="1" /><path clip-path="url(#clip330)" d="M1451.69 937.046 Q1455.05 937.763 1456.93 940.032 Q1458.82 942.3 1458.82 945.634 Q1458.82 950.749 1455.31 953.55 Q1451.79 956.351 1445.31 956.351 Q1443.13 956.351 1440.81 955.911 Q1438.52 955.495 1436.07 954.638 L1436.07 950.124 Q1438.01 951.259 1440.33 951.837 Q1442.64 952.416 1445.17 952.416 Q1449.56 952.416 1451.86 950.68 Q1454.17 948.944 1454.17 945.634 Q1454.17 942.578 1452.02 940.865 Q1449.89 939.129 1446.07 939.129 L1442.04 939.129 L1442.04 935.286 L1446.25 935.286 Q1449.7 935.286 1451.53 933.921 Q1453.36 932.532 1453.36 929.939 Q1453.36 927.277 1451.46 925.865 Q1449.59 924.43 1446.07 924.43 Q1444.15 924.43 1441.95 924.847 Q1439.75 925.263 1437.11 926.143 L1437.11 921.976 Q1439.77 921.236 1442.09 920.865 Q1444.43 920.495 1446.49 920.495 Q1451.81 920.495 1454.91 922.925 Q1458.01 925.333 1458.01 929.453 Q1458.01 932.323 1456.37 934.314 Q1454.73 936.282 1451.69 937.046 Z" fill="#000000" fill-rule="evenodd" fill-opacity="1" /><path clip-path="url(#clip330)" d="M1477.69 924.199 Q1474.08 924.199 1472.25 927.763 Q1470.44 931.305 1470.44 938.435 Q1470.44 945.541 1472.25 949.106 Q1474.08 952.647 1477.69 952.647 Q1481.32 952.647 1483.13 949.106 Q1484.96 945.541 1484.96 938.435 Q1484.96 931.305 1483.13 927.763 Q1481.32 924.199 1477.69 924.199 M1477.69 920.495 Q1483.5 920.495 1486.56 925.101 Q1489.63 929.685 1489.63 938.435 Q1489.63 947.161 1486.56 951.768 Q1483.5 956.351 1477.69 956.351 Q1471.88 956.351 1468.8 951.768 Q1465.75 947.161 1465.75 938.435 Q1465.75 929.685 1468.8 925.101 Q1471.88 920.495 1477.69 920.495 Z" fill="#000000" fill-rule="evenodd" fill-opacity="1" /><path clip-path="url(#clip330)" d="M1507.85 924.199 Q1504.24 924.199 1502.41 927.763 Q1500.61 931.305 1500.61 938.435 Q1500.61 945.541 1502.41 949.106 Q1504.24 952.647 1507.85 952.647 Q1511.49 952.647 1513.29 949.106 Q1515.12 945.541 1515.12 938.435 Q1515.12 931.305 1513.29 927.763 Q1511.49 924.199 1507.85 924.199 M1507.85 920.495 Q1513.66 920.495 1516.72 925.101 Q1519.8 929.685 1519.8 938.435 Q1519.8 947.161 1516.72 951.768 Q1513.66 956.351 1507.85 956.351 Q1502.04 956.351 1498.96 951.768 Q1495.91 947.161 1495.91 938.435 Q1495.91 929.685 1498.96 925.101 Q1502.04 920.495 1507.85 920.495 Z" fill="#000000" fill-rule="evenodd" fill-opacity="1" /><path clip-path="url(#clip330)" d="M1855.03 925.194 L1843.23 943.643 L1855.03 943.643 L1855.03 925.194 M1853.81 921.12 L1859.69 921.12 L1859.69 943.643 L1864.62 943.643 L1864.62 947.532 L1859.69 947.532 L1859.69 955.68 L1855.03 955.68 L1855.03 947.532 L1839.43 947.532 L1839.43 943.018 L1853.81 921.12 Z" fill="#000000" fill-rule="evenodd" fill-opacity="1" /><path clip-path="url(#clip330)" d="M1882.35 924.199 Q1878.74 924.199 1876.91 927.763 Q1875.1 931.305 1875.1 938.435 Q1875.1 945.541 1876.91 949.106 Q1878.74 952.647 1882.35 952.647 Q1885.98 952.647 1887.79 949.106 Q1889.62 945.541 1889.62 938.435 Q1889.62 931.305 1887.79 927.763 Q1885.98 924.199 1882.35 924.199 M1882.35 920.495 Q1888.16 920.495 1891.21 925.101 Q1894.29 929.685 1894.29 938.435 Q1894.29 947.161 1891.21 951.768 Q1888.16 956.351 1882.35 956.351 Q1876.54 956.351 1873.46 951.768 Q1870.4 947.161 1870.4 938.435 Q1870.4 929.685 1873.46 925.101 Q1876.54 920.495 1882.35 920.495 Z" fill="#000000" fill-rule="evenodd" fill-opacity="1" /><path clip-path="url(#clip330)" d="M1912.51 924.199 Q1908.9 924.199 1907.07 927.763 Q1905.26 931.305 1905.26 938.435 Q1905.26 945.541 1907.07 949.106 Q1908.9 952.647 1912.51 952.647 Q1916.14 952.647 1917.95 949.106 Q1919.78 945.541 1919.78 938.435 Q1919.78 931.305 1917.95 927.763 Q1916.14 924.199 1912.51 924.199 M1912.51 920.495 Q1918.32 920.495 1921.37 925.101 Q1924.45 929.685 1924.45 938.435 Q1924.45 947.161 1921.37 951.768 Q1918.32 956.351 1912.51 956.351 Q1906.7 956.351 1903.62 951.768 Q1900.56 947.161 1900.56 938.435 Q1900.56 929.685 1903.62 925.101 Q1906.7 920.495 1912.51 920.495 Z" fill="#000000" fill-rule="evenodd" fill-opacity="1" /><path clip-path="url(#clip330)" d="M943.663 1001.82 L950.093 1001.82 L950.093 1049.34 L943.663 1049.34 L943.663 1001.82 Z" fill="#000000" fill-rule="evenodd" fill-opacity="1" /><path clip-path="url(#clip330)" d="M968.426 1003.57 L968.426 1013.7 L980.489 1013.7 L980.489 1018.25 L968.426 1018.25 L968.426 1037.6 Q968.426 1041.96 969.603 1043.2 Q970.813 1044.44 974.473 1044.44 L980.489 1044.44 L980.489 1049.34 L974.473 1049.34 Q967.694 1049.34 965.116 1046.83 Q962.538 1044.28 962.538 1037.6 L962.538 1018.25 L958.241 1018.25 L958.241 1013.7 L962.538 1013.7 L962.538 1003.57 L968.426 1003.57 Z" fill="#000000" fill-rule="evenodd" fill-opacity="1" /><path clip-path="url(#clip330)" d="M1018.68 1030.06 L1018.68 1032.92 L991.756 1032.92 Q992.138 1038.97 995.385 1042.15 Q998.663 1045.3 1004.49 1045.3 Q1007.86 1045.3 1011.01 1044.47 Q1014.2 1043.65 1017.31 1041.99 L1017.31 1047.53 Q1014.16 1048.87 1010.85 1049.57 Q1007.54 1050.27 1004.14 1050.27 Q995.607 1050.27 990.61 1045.3 Q985.645 1040.34 985.645 1031.87 Q985.645 1023.12 990.356 1017.99 Q995.098 1012.84 1003.12 1012.84 Q1010.31 1012.84 1014.48 1017.48 Q1018.68 1022.1 1018.68 1030.06 M1012.83 1028.34 Q1012.76 1023.53 1010.12 1020.67 Q1007.51 1017.8 1003.18 1017.8 Q998.281 1017.8 995.321 1020.57 Q992.393 1023.34 991.947 1028.37 L1012.83 1028.34 Z" fill="#000000" fill-rule="evenodd" fill-opacity="1" /><path clip-path="url(#clip330)" d="M1048.95 1019.17 Q1047.97 1018.6 1046.79 1018.34 Q1045.64 1018.06 1044.24 1018.06 Q1039.28 1018.06 1036.6 1021.3 Q1033.96 1024.52 1033.96 1030.57 L1033.96 1049.34 L1028.07 1049.34 L1028.07 1013.7 L1033.96 1013.7 L1033.96 1019.23 Q1035.81 1015.99 1038.77 1014.43 Q1041.73 1012.84 1045.96 1012.84 Q1046.56 1012.84 1047.3 1012.93 Q1048.03 1013 1048.92 1013.15 L1048.95 1019.17 Z" fill="#000000" fill-rule="evenodd" fill-opacity="1" /><path clip-path="url(#clip330)" d="M1071.3 1031.42 Q1064.2 1031.42 1061.46 1033.05 Q1058.72 1034.67 1058.72 1038.59 Q1058.72 1041.7 1060.76 1043.55 Q1062.83 1045.37 1066.36 1045.37 Q1071.23 1045.37 1074.16 1041.93 Q1077.12 1038.46 1077.12 1032.73 L1077.12 1031.42 L1071.3 1031.42 M1082.98 1029.01 L1082.98 1049.34 L1077.12 1049.34 L1077.12 1043.93 Q1075.12 1047.18 1072.12 1048.74 Q1069.13 1050.27 1064.8 1050.27 Q1059.33 1050.27 1056.08 1047.21 Q1052.87 1044.12 1052.87 1038.97 Q1052.87 1032.95 1056.88 1029.9 Q1060.92 1026.84 1068.91 1026.84 L1077.12 1026.84 L1077.12 1026.27 Q1077.12 1022.23 1074.45 1020.03 Q1071.8 1017.8 1067 1017.8 Q1063.94 1017.8 1061.05 1018.53 Q1058.15 1019.27 1055.48 1020.73 L1055.48 1015.32 Q1058.69 1014.08 1061.72 1013.47 Q1064.74 1012.84 1067.6 1012.84 Q1075.34 1012.84 1079.16 1016.85 Q1082.98 1020.86 1082.98 1029.01 Z" fill="#000000" fill-rule="evenodd" fill-opacity="1" /><path clip-path="url(#clip330)" d="M1100.83 1003.57 L1100.83 1013.7 L1112.9 1013.7 L1112.9 1018.25 L1100.83 1018.25 L1100.83 1037.6 Q1100.83 1041.96 1102.01 1043.2 Q1103.22 1044.44 1106.88 1044.44 L1112.9 1044.44 L1112.9 1049.34 L1106.88 1049.34 Q1100.1 1049.34 1097.52 1046.83 Q1094.94 1044.28 1094.94 1037.6 L1094.94 1018.25 L1090.65 1018.25 L1090.65 1013.7 L1094.94 1013.7 L1094.94 1003.57 L1100.83 1003.57 Z" fill="#000000" fill-rule="evenodd" fill-opacity="1" /><path clip-path="url(#clip330)" d="M1120.6 1013.7 L1126.45 1013.7 L1126.45 1049.34 L1120.6 1049.34 L1120.6 1013.7 M1120.6 999.819 L1126.45 999.819 L1126.45 1007.23 L1120.6 1007.23 L1120.6 999.819 Z" fill="#000000" fill-rule="evenodd" fill-opacity="1" /><path clip-path="url(#clip330)" d="M1152.52 1017.8 Q1147.81 1017.8 1145.07 1021.49 Q1142.34 1025.15 1142.34 1031.55 Q1142.34 1037.95 1145.04 1041.64 Q1147.78 1045.3 1152.52 1045.3 Q1157.2 1045.3 1159.94 1041.61 Q1162.68 1037.92 1162.68 1031.55 Q1162.68 1025.22 1159.94 1021.53 Q1157.2 1017.8 1152.52 1017.8 M1152.52 1012.84 Q1160.16 1012.84 1164.52 1017.8 Q1168.88 1022.77 1168.88 1031.55 Q1168.88 1040.3 1164.52 1045.3 Q1160.16 1050.27 1152.52 1050.27 Q1144.85 1050.27 1140.49 1045.3 Q1136.16 1040.3 1136.16 1031.55 Q1136.16 1022.77 1140.49 1017.8 Q1144.85 1012.84 1152.52 1012.84 Z" fill="#000000" fill-rule="evenodd" fill-opacity="1" /><path clip-path="url(#clip330)" d="M1208.22 1027.83 L1208.22 1049.34 L1202.37 1049.34 L1202.37 1028.02 Q1202.37 1022.96 1200.39 1020.44 Q1198.42 1017.93 1194.47 1017.93 Q1189.73 1017.93 1186.99 1020.95 Q1184.26 1023.98 1184.26 1029.2 L1184.26 1049.34 L1178.37 1049.34 L1178.37 1013.7 L1184.26 1013.7 L1184.26 1019.23 Q1186.36 1016.02 1189.19 1014.43 Q1192.05 1012.84 1195.78 1012.84 Q1201.92 1012.84 1205.07 1016.66 Q1208.22 1020.44 1208.22 1027.83 Z" fill="#000000" fill-rule="evenodd" fill-opacity="1" /><polyline clip-path="url(#clip332)" style="stroke:#000000; stroke-linecap:butt; stroke-linejoin:round; stroke-width:2; stroke-opacity:0.1; fill:none" points="
  221.583,704.586 1930.3,704.586 
  "/>
<polyline clip-path="url(#clip332)" style="stroke:#000000; stroke-linecap:butt; stroke-linejoin:round; stroke-width:2; stroke-opacity:0.1; fill:none" points="
  221.583,521.161 1930.3,521.161 
  "/>
<polyline clip-path="url(#clip332)" style="stroke:#000000; stroke-linecap:butt; stroke-linejoin:round; stroke-width:2; stroke-opacity:0.1; fill:none" points="
  221.583,337.735 1930.3,337.735 
  "/>
<polyline clip-path="url(#clip332)" style="stroke:#000000; stroke-linecap:butt; stroke-linejoin:round; stroke-width:2; stroke-opacity:0.1; fill:none" points="
  221.583,154.31 1930.3,154.31 
  "/>
<polyline clip-path="url(#clip330)" style="stroke:#000000; stroke-linecap:butt; stroke-linejoin:round; stroke-width:4; stroke-opacity:1; fill:none" points="
  221.583,880.48 221.583,85.6721 
  "/>
<polyline clip-path="url(#clip330)" style="stroke:#000000; stroke-linecap:butt; stroke-linejoin:round; stroke-width:4; stroke-opacity:1; fill:none" points="
  221.583,704.586 240.48,704.586 
  "/>
<polyline clip-path="url(#clip330)" style="stroke:#000000; stroke-linecap:butt; stroke-linejoin:round; stroke-width:4; stroke-opacity:1; fill:none" points="
  221.583,521.161 240.48,521.161 
  "/>
<polyline clip-path="url(#clip330)" style="stroke:#000000; stroke-linecap:butt; stroke-linejoin:round; stroke-width:4; stroke-opacity:1; fill:none" points="
  221.583,337.735 240.48,337.735 
  "/>
<polyline clip-path="url(#clip330)" style="stroke:#000000; stroke-linecap:butt; stroke-linejoin:round; stroke-width:4; stroke-opacity:1; fill:none" points="
  221.583,154.31 240.48,154.31 
  "/>
<path clip-path="url(#clip330)" d="M83.3425 717.931 L99.6619 717.931 L99.6619 721.866 L77.7176 721.866 L77.7176 717.931 Q80.3796 715.177 84.9629 710.547 Q89.5693 705.894 90.7499 704.552 Q92.9953 702.029 93.8749 700.292 Q94.7777 698.533 94.7777 696.843 Q94.7777 694.089 92.8332 692.353 Q90.9119 690.617 87.8101 690.617 Q85.611 690.617 83.1573 691.38 Q80.7268 692.144 77.949 693.695 L77.949 688.973 Q80.7731 687.839 83.2268 687.26 Q85.6805 686.681 87.7175 686.681 Q93.0878 686.681 96.2823 689.367 Q99.4767 692.052 99.4767 696.542 Q99.4767 698.672 98.6665 700.593 Q97.8795 702.492 95.773 705.084 Q95.1943 705.755 92.0925 708.973 Q88.9906 712.167 83.3425 717.931 Z" fill="#000000" fill-rule="evenodd" fill-opacity="1" /><path clip-path="url(#clip330)" d="M119.477 690.385 Q115.866 690.385 114.037 693.95 Q112.231 697.492 112.231 704.621 Q112.231 711.728 114.037 715.292 Q115.866 718.834 119.477 718.834 Q123.111 718.834 124.916 715.292 Q126.745 711.728 126.745 704.621 Q126.745 697.492 124.916 693.95 Q123.111 690.385 119.477 690.385 M119.477 686.681 Q125.287 686.681 128.342 691.288 Q131.421 695.871 131.421 704.621 Q131.421 713.348 128.342 717.954 Q125.287 722.538 119.477 722.538 Q113.666 722.538 110.588 717.954 Q107.532 713.348 107.532 704.621 Q107.532 695.871 110.588 691.288 Q113.666 686.681 119.477 686.681 Z" fill="#000000" fill-rule="evenodd" fill-opacity="1" /><path clip-path="url(#clip330)" d="M149.638 690.385 Q146.027 690.385 144.199 693.95 Q142.393 697.492 142.393 704.621 Q142.393 711.728 144.199 715.292 Q146.027 718.834 149.638 718.834 Q153.273 718.834 155.078 715.292 Q156.907 711.728 156.907 704.621 Q156.907 697.492 155.078 693.95 Q153.273 690.385 149.638 690.385 M149.638 686.681 Q155.449 686.681 158.504 691.288 Q161.583 695.871 161.583 704.621 Q161.583 713.348 158.504 717.954 Q155.449 722.538 149.638 722.538 Q143.828 722.538 140.75 717.954 Q137.694 713.348 137.694 704.621 Q137.694 695.871 140.75 691.288 Q143.828 686.681 149.638 686.681 Z" fill="#000000" fill-rule="evenodd" fill-opacity="1" /><path clip-path="url(#clip330)" d="M92.1619 507.955 L80.3564 526.404 L92.1619 526.404 L92.1619 507.955 M90.9351 503.881 L96.8147 503.881 L96.8147 526.404 L101.745 526.404 L101.745 530.293 L96.8147 530.293 L96.8147 538.441 L92.1619 538.441 L92.1619 530.293 L76.5602 530.293 L76.5602 525.779 L90.9351 503.881 Z" fill="#000000" fill-rule="evenodd" fill-opacity="1" /><path clip-path="url(#clip330)" d="M119.477 506.96 Q115.866 506.96 114.037 510.524 Q112.231 514.066 112.231 521.196 Q112.231 528.302 114.037 531.867 Q115.866 535.408 119.477 535.408 Q123.111 535.408 124.916 531.867 Q126.745 528.302 126.745 521.196 Q126.745 514.066 124.916 510.524 Q123.111 506.96 119.477 506.96 M119.477 503.256 Q125.287 503.256 128.342 507.862 Q131.421 512.446 131.421 521.196 Q131.421 529.922 128.342 534.529 Q125.287 539.112 119.477 539.112 Q113.666 539.112 110.588 534.529 Q107.532 529.922 107.532 521.196 Q107.532 512.446 110.588 507.862 Q113.666 503.256 119.477 503.256 Z" fill="#000000" fill-rule="evenodd" fill-opacity="1" /><path clip-path="url(#clip330)" d="M149.638 506.96 Q146.027 506.96 144.199 510.524 Q142.393 514.066 142.393 521.196 Q142.393 528.302 144.199 531.867 Q146.027 535.408 149.638 535.408 Q153.273 535.408 155.078 531.867 Q156.907 528.302 156.907 521.196 Q156.907 514.066 155.078 510.524 Q153.273 506.96 149.638 506.96 M149.638 503.256 Q155.449 503.256 158.504 507.862 Q161.583 512.446 161.583 521.196 Q161.583 529.922 158.504 534.529 Q155.449 539.112 149.638 539.112 Q143.828 539.112 140.75 534.529 Q137.694 529.922 137.694 521.196 Q137.694 512.446 140.75 507.862 Q143.828 503.256 149.638 503.256 Z" fill="#000000" fill-rule="evenodd" fill-opacity="1" /><path clip-path="url(#clip330)" d="M89.8934 335.872 Q86.7453 335.872 84.8934 338.025 Q83.0648 340.177 83.0648 343.927 Q83.0648 347.654 84.8934 349.83 Q86.7453 351.983 89.8934 351.983 Q93.0416 351.983 94.8702 349.83 Q96.7221 347.654 96.7221 343.927 Q96.7221 340.177 94.8702 338.025 Q93.0416 335.872 89.8934 335.872 M99.1758 321.219 L99.1758 325.478 Q97.4165 324.645 95.611 324.205 Q93.8286 323.765 92.0693 323.765 Q87.4397 323.765 84.986 326.89 Q82.5555 330.015 82.2083 336.335 Q83.574 334.321 85.6342 333.256 Q87.6944 332.168 90.1712 332.168 Q95.3795 332.168 98.3887 335.339 Q101.421 338.488 101.421 343.927 Q101.421 349.251 98.273 352.469 Q95.1249 355.687 89.8934 355.687 Q83.8981 355.687 80.7268 351.103 Q77.5555 346.497 77.5555 337.77 Q77.5555 329.576 81.4444 324.714 Q85.3333 319.83 91.8841 319.83 Q93.6434 319.83 95.4258 320.177 Q97.2313 320.525 99.1758 321.219 Z" fill="#000000" fill-rule="evenodd" fill-opacity="1" /><path clip-path="url(#clip330)" d="M119.477 323.534 Q115.866 323.534 114.037 327.099 Q112.231 330.64 112.231 337.77 Q112.231 344.876 114.037 348.441 Q115.866 351.983 119.477 351.983 Q123.111 351.983 124.916 348.441 Q126.745 344.876 126.745 337.77 Q126.745 330.64 124.916 327.099 Q123.111 323.534 119.477 323.534 M119.477 319.83 Q125.287 319.83 128.342 324.437 Q131.421 329.02 131.421 337.77 Q131.421 346.497 128.342 351.103 Q125.287 355.687 119.477 355.687 Q113.666 355.687 110.588 351.103 Q107.532 346.497 107.532 337.77 Q107.532 329.02 110.588 324.437 Q113.666 319.83 119.477 319.83 Z" fill="#000000" fill-rule="evenodd" fill-opacity="1" /><path clip-path="url(#clip330)" d="M149.638 323.534 Q146.027 323.534 144.199 327.099 Q142.393 330.64 142.393 337.77 Q142.393 344.876 144.199 348.441 Q146.027 351.983 149.638 351.983 Q153.273 351.983 155.078 348.441 Q156.907 344.876 156.907 337.77 Q156.907 330.64 155.078 327.099 Q153.273 323.534 149.638 323.534 M149.638 319.83 Q155.449 319.83 158.504 324.437 Q161.583 329.02 161.583 337.77 Q161.583 346.497 158.504 351.103 Q155.449 355.687 149.638 355.687 Q143.828 355.687 140.75 351.103 Q137.694 346.497 137.694 337.77 Q137.694 329.02 140.75 324.437 Q143.828 319.83 149.638 319.83 Z" fill="#000000" fill-rule="evenodd" fill-opacity="1" /><path clip-path="url(#clip330)" d="M89.3147 155.178 Q85.9814 155.178 84.0601 156.96 Q82.162 158.743 82.162 161.868 Q82.162 164.993 84.0601 166.775 Q85.9814 168.557 89.3147 168.557 Q92.648 168.557 94.5693 166.775 Q96.4906 164.969 96.4906 161.868 Q96.4906 158.743 94.5693 156.96 Q92.6712 155.178 89.3147 155.178 M84.6388 153.187 Q81.6296 152.446 79.9398 150.386 Q78.2731 148.326 78.2731 145.363 Q78.2731 141.219 81.2129 138.812 Q84.1759 136.405 89.3147 136.405 Q94.4767 136.405 97.4165 138.812 Q100.356 141.219 100.356 145.363 Q100.356 148.326 98.6665 150.386 Q96.9999 152.446 94.0138 153.187 Q97.3934 153.974 99.2684 156.266 Q101.167 158.557 101.167 161.868 Q101.167 166.891 98.0878 169.576 Q95.0323 172.261 89.3147 172.261 Q83.5972 172.261 80.5185 169.576 Q77.4629 166.891 77.4629 161.868 Q77.4629 158.557 79.3611 156.266 Q81.2592 153.974 84.6388 153.187 M82.9259 145.803 Q82.9259 148.488 84.5925 149.993 Q86.2823 151.497 89.3147 151.497 Q92.324 151.497 94.0138 149.993 Q95.7267 148.488 95.7267 145.803 Q95.7267 143.118 94.0138 141.613 Q92.324 140.108 89.3147 140.108 Q86.2823 140.108 84.5925 141.613 Q82.9259 143.118 82.9259 145.803 Z" fill="#000000" fill-rule="evenodd" fill-opacity="1" /><path clip-path="url(#clip330)" d="M119.477 140.108 Q115.866 140.108 114.037 143.673 Q112.231 147.215 112.231 154.344 Q112.231 161.451 114.037 165.016 Q115.866 168.557 119.477 168.557 Q123.111 168.557 124.916 165.016 Q126.745 161.451 126.745 154.344 Q126.745 147.215 124.916 143.673 Q123.111 140.108 119.477 140.108 M119.477 136.405 Q125.287 136.405 128.342 141.011 Q131.421 145.594 131.421 154.344 Q131.421 163.071 128.342 167.678 Q125.287 172.261 119.477 172.261 Q113.666 172.261 110.588 167.678 Q107.532 163.071 107.532 154.344 Q107.532 145.594 110.588 141.011 Q113.666 136.405 119.477 136.405 Z" fill="#000000" fill-rule="evenodd" fill-opacity="1" /><path clip-path="url(#clip330)" d="M149.638 140.108 Q146.027 140.108 144.199 143.673 Q142.393 147.215 142.393 154.344 Q142.393 161.451 144.199 165.016 Q146.027 168.557 149.638 168.557 Q153.273 168.557 155.078 165.016 Q156.907 161.451 156.907 154.344 Q156.907 147.215 155.078 143.673 Q153.273 140.108 149.638 140.108 M149.638 136.405 Q155.449 136.405 158.504 141.011 Q161.583 145.594 161.583 154.344 Q161.583 163.071 158.504 167.678 Q155.449 172.261 149.638 172.261 Q143.828 172.261 140.75 167.678 Q137.694 163.071 137.694 154.344 Q137.694 145.594 140.75 141.011 Q143.828 136.405 149.638 136.405 Z" fill="#000000" fill-rule="evenodd" fill-opacity="1" /><path clip-path="url(#clip330)" d="M-43.6562 670.196 L-37.386 670.196 Q-39.1366 673.856 -39.996 677.103 Q-40.8553 680.349 -40.8553 683.373 Q-40.8553 688.625 -38.8183 691.489 Q-36.7813 694.322 -33.0255 694.322 Q-29.8745 694.322 -28.2512 692.444 Q-26.6598 690.534 -25.6731 685.251 L-24.8774 681.368 Q-23.5088 674.174 -20.0395 670.769 Q-16.602 667.331 -10.8092 667.331 Q-3.90241 667.331 -0.337611 671.978 Q3.22718 676.593 3.22718 685.537 Q3.22718 688.911 2.4633 692.731 Q1.69942 696.518 0.203474 700.592 L-6.41686 700.592 Q-4.22069 696.677 -3.10669 692.922 Q-1.99269 689.166 -1.99269 685.537 Q-1.99269 680.031 -4.15703 677.039 Q-6.32138 674.047 -10.3318 674.047 Q-13.8329 674.047 -15.8063 676.212 Q-17.7796 678.344 -18.7663 683.246 L-19.5302 687.161 Q-20.9625 694.354 -24.018 697.568 Q-27.0736 700.783 -32.5163 700.783 Q-38.8183 700.783 -42.4468 696.359 Q-46.0752 691.903 -46.0752 684.105 Q-46.0752 680.763 -45.4705 677.294 Q-44.8657 673.824 -43.6562 670.196 Z" fill="#000000" fill-rule="evenodd" fill-opacity="1" /><path clip-path="url(#clip330)" d="M-15.6153 641.359 Q-15.6153 648.457 -13.9921 651.194 Q-12.3688 653.932 -8.45389 653.932 Q-5.33469 653.932 -3.48864 651.895 Q-1.67441 649.826 -1.67441 646.293 Q-1.67441 641.423 -5.11189 638.495 Q-8.5812 635.535 -14.3103 635.535 L-15.6153 635.535 L-15.6153 641.359 M-18.0343 629.678 L2.30416 629.678 L2.30416 635.535 L-3.10669 635.535 Q0.139817 637.54 1.69942 640.532 Q3.22718 643.524 3.22718 647.852 Q3.22718 653.327 0.171646 656.573 Q-2.91572 659.788 -8.07194 659.788 Q-14.0875 659.788 -17.1431 655.778 Q-20.1986 651.735 -20.1986 643.746 L-20.1986 635.535 L-20.7715 635.535 Q-24.8138 635.535 -27.0099 638.208 Q-29.2379 640.85 -29.2379 645.656 Q-29.2379 648.712 -28.5059 651.608 Q-27.7738 654.504 -26.3097 657.178 L-31.7205 657.178 Q-32.9619 653.963 -33.5666 650.94 Q-34.2032 647.916 -34.2032 645.051 Q-34.2032 637.317 -30.1928 633.498 Q-26.1824 629.678 -18.0343 629.678 Z" fill="#000000" fill-rule="evenodd" fill-opacity="1" /><path clip-path="url(#clip330)" d="M-26.5007 589.861 Q-30.4474 587.665 -32.3253 584.609 Q-34.2032 581.553 -34.2032 577.416 Q-34.2032 571.846 -30.2883 568.822 Q-26.4052 565.798 -19.2119 565.798 L2.30416 565.798 L2.30416 571.687 L-19.021 571.687 Q-24.1454 571.687 -26.628 573.501 Q-29.1106 575.315 -29.1106 579.039 Q-29.1106 583.59 -26.0869 586.232 Q-23.0632 588.874 -17.8433 588.874 L2.30416 588.874 L2.30416 594.762 L-19.021 594.762 Q-24.1772 594.762 -26.628 596.577 Q-29.1106 598.391 -29.1106 602.178 Q-29.1106 606.666 -26.0551 609.308 Q-23.0314 611.95 -17.8433 611.95 L2.30416 611.95 L2.30416 617.838 L-33.3438 617.838 L-33.3438 611.95 L-27.8056 611.95 Q-31.084 609.945 -32.6436 607.144 Q-34.2032 604.343 -34.2032 600.491 Q-34.2032 596.608 -32.2298 593.903 Q-30.2564 591.166 -26.5007 589.861 Z" fill="#000000" fill-rule="evenodd" fill-opacity="1" /><path clip-path="url(#clip330)" d="M-3.04304 548.452 L15.8631 548.452 L15.8631 554.34 L-33.3438 554.34 L-33.3438 548.452 L-27.9329 548.452 Q-31.1158 546.606 -32.6436 543.805 Q-34.2032 540.972 -34.2032 537.057 Q-34.2032 530.564 -29.0469 526.522 Q-23.8907 522.448 -15.488 522.448 Q-7.08526 522.448 -1.92904 526.522 Q3.22718 530.564 3.22718 537.057 Q3.22718 540.972 1.69942 543.805 Q0.139817 546.606 -3.04304 548.452 M-15.488 528.527 Q-21.9492 528.527 -25.6095 531.201 Q-29.3016 533.842 -29.3016 538.489 Q-29.3016 543.136 -25.6095 545.81 Q-21.9492 548.452 -15.488 548.452 Q-9.0268 548.452 -5.33469 545.81 Q-1.67441 543.136 -1.67441 538.489 Q-1.67441 533.842 -5.33469 531.201 Q-9.0268 528.527 -15.488 528.527 Z" fill="#000000" fill-rule="evenodd" fill-opacity="1" /><path clip-path="url(#clip330)" d="M-47.221 512.74 L-47.221 506.884 L2.30416 506.884 L2.30416 512.74 L-47.221 512.74 Z" fill="#000000" fill-rule="evenodd" fill-opacity="1" /><path clip-path="url(#clip330)" d="M-16.9839 464.138 L-14.1194 464.138 L-14.1194 491.065 Q-8.07194 490.683 -4.88909 487.436 Q-1.73807 484.158 -1.73807 478.334 Q-1.73807 474.96 -2.56561 471.809 Q-3.39315 468.626 -5.04823 465.507 L0.489931 465.507 Q1.82673 468.658 2.52696 471.968 Q3.22718 475.278 3.22718 478.684 Q3.22718 487.214 -1.73807 492.211 Q-6.70332 497.176 -15.1697 497.176 Q-23.9226 497.176 -29.0469 492.465 Q-34.2032 487.723 -34.2032 479.702 Q-34.2032 472.509 -29.5562 468.339 Q-24.9411 464.138 -16.9839 464.138 M-18.7027 469.994 Q-23.5088 470.058 -26.3734 472.7 Q-29.2379 475.31 -29.2379 479.639 Q-29.2379 484.54 -26.4688 487.5 Q-23.6998 490.428 -18.6708 490.874 L-18.7027 469.994 Z" fill="#000000" fill-rule="evenodd" fill-opacity="1" /><path clip-path="url(#clip330)" d="M-33.3438 438.007 L-33.3438 431.8 L-3.42498 420.66 L-33.3438 409.52 L-33.3438 403.314 L2.30416 416.682 L2.30416 424.639 L-33.3438 438.007 Z" fill="#000000" fill-rule="evenodd" fill-opacity="1" /><path clip-path="url(#clip330)" d="M-15.6153 379.029 Q-15.6153 386.126 -13.9921 388.864 Q-12.3688 391.601 -8.45389 391.601 Q-5.33469 391.601 -3.48864 389.564 Q-1.67441 387.495 -1.67441 383.962 Q-1.67441 379.092 -5.11189 376.164 Q-8.5812 373.204 -14.3103 373.204 L-15.6153 373.204 L-15.6153 379.029 M-18.0343 367.347 L2.30416 367.347 L2.30416 373.204 L-3.10669 373.204 Q0.139817 375.209 1.69942 378.201 Q3.22718 381.193 3.22718 385.522 Q3.22718 390.996 0.171646 394.243 Q-2.91572 397.457 -8.07194 397.457 Q-14.0875 397.457 -17.1431 393.447 Q-20.1986 389.405 -20.1986 381.416 L-20.1986 373.204 L-20.7715 373.204 Q-24.8138 373.204 -27.0099 375.877 Q-29.2379 378.519 -29.2379 383.325 Q-29.2379 386.381 -28.5059 389.277 Q-27.7738 392.174 -26.3097 394.847 L-31.7205 394.847 Q-32.9619 391.633 -33.5666 388.609 Q-34.2032 385.585 -34.2032 382.721 Q-34.2032 374.986 -30.1928 371.167 Q-26.1824 367.347 -18.0343 367.347 Z" fill="#000000" fill-rule="evenodd" fill-opacity="1" /><path clip-path="url(#clip330)" d="M-47.221 355.284 L-47.221 349.428 L2.30416 349.428 L2.30416 355.284 L-47.221 355.284 Z" fill="#000000" fill-rule="evenodd" fill-opacity="1" /><path clip-path="url(#clip330)" d="M-11.7641 337.779 L-33.3438 337.779 L-33.3438 331.922 L-11.9869 331.922 Q-6.92612 331.922 -4.37983 329.949 Q-1.86538 327.976 -1.86538 324.029 Q-1.86538 319.286 -4.88909 316.549 Q-7.9128 313.78 -13.1327 313.78 L-33.3438 313.78 L-33.3438 307.924 L2.30416 307.924 L2.30416 313.78 L-3.17035 313.78 Q0.0761602 315.913 1.66759 318.745 Q3.22718 321.546 3.22718 325.27 Q3.22718 331.413 -0.592239 334.596 Q-4.41166 337.779 -11.7641 337.779 M-34.2032 323.042 L-34.2032 323.042 Z" fill="#000000" fill-rule="evenodd" fill-opacity="1" /><path clip-path="url(#clip330)" d="M-16.9839 265.369 L-14.1194 265.369 L-14.1194 292.296 Q-8.07194 291.914 -4.88909 288.667 Q-1.73807 285.389 -1.73807 279.564 Q-1.73807 276.191 -2.56561 273.039 Q-3.39315 269.857 -5.04823 266.737 L0.489931 266.737 Q1.82673 269.888 2.52696 273.199 Q3.22718 276.509 3.22718 279.914 Q3.22718 288.445 -1.73807 293.442 Q-6.70332 298.407 -15.1697 298.407 Q-23.9226 298.407 -29.0469 293.696 Q-34.2032 288.954 -34.2032 280.933 Q-34.2032 273.74 -29.5562 269.57 Q-24.9411 265.369 -16.9839 265.369 M-18.7027 271.225 Q-23.5088 271.289 -26.3734 273.931 Q-29.2379 276.541 -29.2379 280.869 Q-29.2379 285.771 -26.4688 288.731 Q-23.6998 291.659 -18.6708 292.105 L-18.7027 271.225 Z" fill="#000000" fill-rule="evenodd" fill-opacity="1" /><path clip-path="url(#clip330)" d="M909.268 65.7705 L909.268 89.8329 L901.774 89.8329 L901.774 27.2059 L909.268 27.2059 L909.268 34.0924 Q911.618 30.0415 915.182 28.0971 Q918.788 26.1121 923.77 26.1121 Q932.034 26.1121 937.179 32.6746 Q942.364 39.2371 942.364 49.9314 Q942.364 60.6258 937.179 67.1883 Q932.034 73.7508 923.77 73.7508 Q918.788 73.7508 915.182 71.8063 Q911.618 69.8214 909.268 65.7705 M934.627 49.9314 Q934.627 41.7081 931.224 37.0496 Q927.862 32.3505 921.947 32.3505 Q916.033 32.3505 912.63 37.0496 Q909.268 41.7081 909.268 49.9314 Q909.268 58.1548 912.63 62.8538 Q916.033 67.5124 921.947 67.5124 Q927.862 67.5124 931.224 62.8538 Q934.627 58.1548 934.627 49.9314 Z" fill="#000000" fill-rule="evenodd" fill-opacity="1" /><path clip-path="url(#clip330)" d="M975.338 49.7694 Q966.305 49.7694 962.821 51.8354 Q959.337 53.9013 959.337 58.8839 Q959.337 62.8538 961.93 65.2034 Q964.563 67.5124 969.059 67.5124 Q975.257 67.5124 978.984 63.1374 Q982.752 58.7219 982.752 51.4303 L982.752 49.7694 L975.338 49.7694 M990.205 46.6907 L990.205 72.576 L982.752 72.576 L982.752 65.6895 Q980.199 69.8214 976.392 71.8063 Q972.584 73.7508 967.075 73.7508 Q960.107 73.7508 955.975 69.8619 Q951.884 65.9325 951.884 59.3701 Q951.884 51.7138 956.988 47.825 Q962.132 43.9361 972.3 43.9361 L982.752 43.9361 L982.752 43.2069 Q982.752 38.0623 979.349 35.2672 Q975.987 32.4315 969.87 32.4315 Q965.981 32.4315 962.294 33.3632 Q958.608 34.295 955.205 36.1584 L955.205 29.2718 Q959.297 27.692 963.145 26.9223 Q966.994 26.1121 970.639 26.1121 Q980.483 26.1121 985.344 31.2163 Q990.205 36.3204 990.205 46.6907 Z" fill="#000000" fill-rule="evenodd" fill-opacity="1" /><path clip-path="url(#clip330)" d="M1031.85 34.1734 Q1030.59 33.4443 1029.09 33.1202 Q1027.64 32.7556 1025.85 32.7556 Q1019.53 32.7556 1016.13 36.8875 Q1012.77 40.9789 1012.77 48.6757 L1012.77 72.576 L1005.27 72.576 L1005.27 27.2059 L1012.77 27.2059 L1012.77 34.2544 Q1015.12 30.1225 1018.89 28.1376 Q1022.65 26.1121 1028.04 26.1121 Q1028.81 26.1121 1029.74 26.2337 Q1030.67 26.3147 1031.81 26.5172 L1031.85 34.1734 Z" fill="#000000" fill-rule="evenodd" fill-opacity="1" /><path clip-path="url(#clip330)" d="M1060.29 49.7694 Q1051.25 49.7694 1047.77 51.8354 Q1044.28 53.9013 1044.28 58.8839 Q1044.28 62.8538 1046.88 65.2034 Q1049.51 67.5124 1054.01 67.5124 Q1060.2 67.5124 1063.93 63.1374 Q1067.7 58.7219 1067.7 51.4303 L1067.7 49.7694 L1060.29 49.7694 M1075.15 46.6907 L1075.15 72.576 L1067.7 72.576 L1067.7 65.6895 Q1065.15 69.8214 1061.34 71.8063 Q1057.53 73.7508 1052.02 73.7508 Q1045.05 73.7508 1040.92 69.8619 Q1036.83 65.9325 1036.83 59.3701 Q1036.83 51.7138 1041.94 47.825 Q1047.08 43.9361 1057.25 43.9361 L1067.7 43.9361 L1067.7 43.2069 Q1067.7 38.0623 1064.3 35.2672 Q1060.93 32.4315 1054.82 32.4315 Q1050.93 32.4315 1047.24 33.3632 Q1043.56 34.295 1040.15 36.1584 L1040.15 29.2718 Q1044.24 27.692 1048.09 26.9223 Q1051.94 26.1121 1055.59 26.1121 Q1065.43 26.1121 1070.29 31.2163 Q1075.15 36.3204 1075.15 46.6907 Z" fill="#000000" fill-rule="evenodd" fill-opacity="1" /><path clip-path="url(#clip330)" d="M1125.83 35.9153 Q1128.62 30.8922 1132.51 28.5022 Q1136.4 26.1121 1141.67 26.1121 Q1148.76 26.1121 1152.61 31.0947 Q1156.45 36.0368 1156.45 45.1919 L1156.45 72.576 L1148.96 72.576 L1148.96 45.4349 Q1148.96 38.913 1146.65 35.7533 Q1144.34 32.5936 1139.6 32.5936 Q1133.81 32.5936 1130.45 36.4419 Q1127.09 40.2903 1127.09 46.9338 L1127.09 72.576 L1119.59 72.576 L1119.59 45.4349 Q1119.59 38.8725 1117.28 35.7533 Q1114.97 32.5936 1110.15 32.5936 Q1104.44 32.5936 1101.08 36.4824 Q1097.72 40.3308 1097.72 46.9338 L1097.72 72.576 L1090.22 72.576 L1090.22 27.2059 L1097.72 27.2059 L1097.72 34.2544 Q1100.27 30.082 1103.83 28.0971 Q1107.4 26.1121 1112.3 26.1121 Q1117.24 26.1121 1120.68 28.6237 Q1124.17 31.1352 1125.83 35.9153 Z" fill="#000000" fill-rule="evenodd" fill-opacity="1" /><path clip-path="url(#clip330)" d="M1205.79 86.3491 L1205.79 92.1419 L1162.69 92.1419 L1162.69 86.3491 L1205.79 86.3491 Z" fill="#000000" fill-rule="evenodd" fill-opacity="1" /><path clip-path="url(#clip330)" d="M1215.27 65.6895 L1228.64 65.6895 L1228.64 19.5497 L1214.1 22.4663 L1214.1 15.0127 L1228.56 12.096 L1236.74 12.096 L1236.74 65.6895 L1250.11 65.6895 L1250.11 72.576 L1215.27 72.576 L1215.27 65.6895 Z" fill="#000000" fill-rule="evenodd" fill-opacity="1" /><polyline clip-path="url(#clip332)" style="stroke:#009af9; stroke-linecap:butt; stroke-linejoin:round; stroke-width:4; stroke-opacity:1; fill:none" points="
  269.943,755.37 273.983,533.374 278.023,779.983 282.063,807.906 286.103,699.932 290.143,724.333 294.183,778.41 298.224,605.063 302.264,748.878 306.304,683.471 
  310.344,837.653 314.384,790.062 318.424,828.398 322.464,809.728 326.504,824.983 330.544,815.588 334.584,753.476 338.625,827.342 342.665,733.055 346.705,766.63 
  350.745,822.283 354.785,794.304 358.825,745.027 362.865,728.542 366.905,638.461 370.945,841.396 374.985,785.504 379.026,810.153 383.066,730.004 387.106,780.064 
  391.146,837.714 395.186,788.153 399.226,385.607 403.266,756.288 407.306,773.179 411.346,757.887 415.386,757.672 419.426,755.043 423.467,768 427.507,743.282 
  431.547,809.958 435.587,691.892 439.627,854.604 443.667,790.863 447.707,766.151 451.747,478.22 455.787,837.975 459.827,821.849 463.868,803.669 467.908,672.894 
  471.948,800.089 475.988,712.839 480.028,765.775 484.068,732.782 488.108,779.639 492.148,826.493 496.188,619.859 500.228,821.431 504.269,711.238 508.309,691.149 
  512.349,825.702 516.389,805.397 520.429,808.969 524.469,681.104 528.509,791.274 532.549,740.831 536.589,742.531 540.629,808.995 544.67,784.427 548.71,753.101 
  552.75,711.163 556.79,765.461 560.83,712.235 564.87,817.746 568.91,716.468 572.95,698.279 576.99,792.825 581.03,743.022 585.071,845.386 589.111,784.446 
  593.151,759.755 597.191,830.122 601.231,803.997 605.271,816.213 609.311,777.668 613.351,738.122 617.391,749.331 621.431,786.916 625.472,751.779 629.512,838.838 
  633.552,778.233 637.592,833.408 641.632,767.207 645.672,784.781 649.712,724.734 653.752,522.116 657.792,598.711 661.832,799.286 665.873,788.6 669.913,791.804 
  673.953,763.369 677.993,857.547 682.033,810.621 686.073,816.676 690.113,673.583 694.153,744.607 698.193,758.446 702.233,642.765 706.274,768.001 710.314,742.113 
  714.354,801.553 718.394,781.345 722.434,334.647 726.474,717.191 730.514,840.26 734.554,656.407 738.594,681.699 742.634,738.694 746.675,764.86 750.715,786.273 
  754.755,709.689 758.795,636.11 762.835,808.486 766.875,778.259 770.915,827.911 774.955,761.363 778.995,732.353 783.035,756.945 787.076,619.416 791.116,812.655 
  795.156,838.712 799.196,837.884 803.236,463.141 807.276,742.499 811.316,739.744 815.356,826.612 819.396,721.267 823.436,811.414 827.476,826.261 831.517,498.984 
  835.557,790.309 839.597,752.427 843.637,769.6 847.677,720.405 851.717,796.014 855.757,846.564 859.797,821.246 863.837,751.676 867.877,827.511 871.918,818.654 
  875.958,797.727 879.998,787.454 884.038,761.299 888.078,798.254 892.118,727.384 896.158,765.565 900.198,761.292 904.238,784.397 908.278,686.008 912.319,781.828 
  916.359,802.441 920.399,821.92 924.439,719.876 928.479,749.681 932.519,781.924 936.559,798.92 940.599,729.974 944.639,760.75 948.679,703.302 952.72,784.422 
  956.76,839.912 960.8,813.463 964.84,811.865 968.88,854.377 972.92,705.115 976.96,817.504 981,108.167 985.04,795.572 989.08,825.079 993.121,810.027 
  997.161,658.311 1001.2,754.075 1005.24,729.596 1009.28,697.751 1013.32,819.223 1017.36,764.132 1021.4,814.861 1025.44,720.438 1029.48,796.974 1033.52,787.865 
  1037.56,805.25 1041.6,706.513 1045.64,792.248 1049.68,748.826 1053.72,779.819 1057.76,832.151 1061.8,768.516 1065.84,739.071 1069.88,754.411 1073.92,568.505 
  1077.96,790.724 1082,730.598 1086.04,809.327 1090.08,854.372 1094.12,793.987 1098.16,820.277 1102.2,809.316 1106.24,719.556 1110.28,786.001 1114.32,748.554 
  1118.36,756.4 1122.4,796.301 1126.44,684.899 1130.48,724.366 1134.52,834.337 1138.56,726.559 1142.6,832.604 1146.64,730.234 1150.68,833.573 1154.72,843.692 
  1158.76,657.141 1162.8,773.22 1166.84,723.687 1170.88,722.591 1174.93,812.005 1178.97,810.356 1183.01,746.524 1187.05,709.592 1191.09,791.762 1195.13,818.471 
  1199.17,837.847 1203.21,759.862 1207.25,754.476 1211.29,780.864 1215.33,830.722 1219.37,813.965 1223.41,822.804 1227.45,737.381 1231.49,811.162 1235.53,735.424 
  1239.57,833.177 1243.61,767.125 1247.65,819.055 1251.69,842.72 1255.73,665.585 1259.77,769.169 1263.81,779.034 1267.85,847.584 1271.89,816.441 1275.93,768.174 
  1279.97,754.936 1284.01,825.58 1288.05,826.923 1292.09,664.175 1296.13,704.275 1300.17,695.73 1304.21,815.716 1308.25,774.758 1312.29,804.653 1316.33,816.229 
  1320.37,786.424 1324.41,770.281 1328.45,755.54 1332.49,834.223 1336.53,730.453 1340.57,774.105 1344.61,809.315 1348.65,823.791 1352.69,672.594 1356.73,809.455 
  1360.77,754.549 1364.81,656.513 1368.85,568.045 1372.89,661.167 1376.93,840.679 1380.97,820.754 1385.01,737.051 1389.05,758.553 1393.09,744.65 1397.13,829.265 
  1401.17,806.211 1405.21,827.473 1409.25,755.742 1413.29,806.787 1417.33,784.171 1421.37,796.648 1425.41,725.899 1429.45,781.681 1433.49,787.375 1437.53,533.101 
  1441.57,809.394 1445.61,750.332 1449.65,824.908 1453.69,627.412 1457.73,439.831 1461.77,818.091 1465.81,835.611 1469.85,774.025 1473.89,653.084 1477.93,769.649 
  1481.97,723.697 1486.01,778.768 1490.05,795.866 1494.09,810.762 1498.13,813.307 1502.17,671.747 1506.21,793.027 1510.25,807.701 1514.29,693.737 1518.33,797.794 
  1522.37,627.05 1526.41,766.472 1530.45,835.144 1534.49,696.859 1538.53,753.482 1542.57,741.056 1546.61,792.122 1550.65,622.077 1554.69,784.615 1558.73,802.63 
  1562.77,796.321 1566.81,727.314 1570.85,812.333 1574.89,783.083 1578.93,671.871 1582.98,788.09 1587.02,718.409 1591.06,782.395 1595.1,753.625 1599.14,793.833 
  1603.18,748.318 1607.22,831.418 1611.26,785.383 1615.3,730.468 1619.34,810.036 1623.38,786.72 1627.42,732.597 1631.46,798.033 1635.5,757.514 1639.54,802.554 
  1643.58,822.909 1647.62,770.611 1651.66,737.001 1655.7,768.627 1659.74,714.237 1663.78,798.212 1667.82,716.943 1671.86,787.763 1675.9,783.222 1679.94,826.912 
  1683.98,807.885 1688.02,810.649 1692.06,738.16 1696.1,776.38 1700.14,758.314 1704.18,634.532 1708.22,720.681 1712.26,678.151 1716.3,699.729 1720.34,857.985 
  1724.38,810.369 1728.42,814.505 1732.46,800.408 1736.5,807.969 1740.54,838.787 1744.58,718.197 1748.62,707.536 1752.66,727.247 1756.7,796.452 1760.74,758.034 
  1764.78,823.529 1768.82,774.537 1772.86,803.751 1776.9,765.558 1780.94,763.272 1784.98,681.369 1789.02,751.155 1793.06,675.409 1797.1,752.489 1801.14,822.925 
  1805.18,726.972 1809.22,675.426 1813.26,563.243 1817.3,831.787 1821.34,622.152 1825.38,775.895 1829.42,779.067 1833.46,784.304 1837.5,747.554 1841.54,827.071 
  1845.58,757.514 1849.62,790.151 1853.66,721.965 1857.7,767.913 1861.74,717.014 1865.78,746.981 1869.82,685.269 1873.86,547.318 1877.9,817.945 1881.94,628.891 
  
  "/>
<path clip-path="url(#clip330)" d="
M2244.04 880.48 L3952.76 880.48 L3952.76 85.6721 L2244.04 85.6721  Z
  " fill="#ffffff" fill-rule="evenodd" fill-opacity="1"/>
<defs>
  <clipPath id="clip333">
    <rect x="2244" y="85" width="1710" height="796"/>
  </clipPath>
</defs>
<polyline clip-path="url(#clip333)" style="stroke:#000000; stroke-linecap:butt; stroke-linejoin:round; stroke-width:2; stroke-opacity:0.1; fill:none" points="
  2619.66,880.48 2619.66,85.6721 
  "/>
<polyline clip-path="url(#clip333)" style="stroke:#000000; stroke-linecap:butt; stroke-linejoin:round; stroke-width:2; stroke-opacity:0.1; fill:none" points="
  3016.09,880.48 3016.09,85.6721 
  "/>
<polyline clip-path="url(#clip333)" style="stroke:#000000; stroke-linecap:butt; stroke-linejoin:round; stroke-width:2; stroke-opacity:0.1; fill:none" points="
  3412.51,880.48 3412.51,85.6721 
  "/>
<polyline clip-path="url(#clip333)" style="stroke:#000000; stroke-linecap:butt; stroke-linejoin:round; stroke-width:2; stroke-opacity:0.1; fill:none" points="
  3808.94,880.48 3808.94,85.6721 
  "/>
<polyline clip-path="url(#clip330)" style="stroke:#000000; stroke-linecap:butt; stroke-linejoin:round; stroke-width:4; stroke-opacity:1; fill:none" points="
  2244.04,880.48 3952.76,880.48 
  "/>
<polyline clip-path="url(#clip330)" style="stroke:#000000; stroke-linecap:butt; stroke-linejoin:round; stroke-width:4; stroke-opacity:1; fill:none" points="
  2619.66,880.48 2619.66,861.582 
  "/>
<polyline clip-path="url(#clip330)" style="stroke:#000000; stroke-linecap:butt; stroke-linejoin:round; stroke-width:4; stroke-opacity:1; fill:none" points="
  3016.09,880.48 3016.09,861.582 
  "/>
<polyline clip-path="url(#clip330)" style="stroke:#000000; stroke-linecap:butt; stroke-linejoin:round; stroke-width:4; stroke-opacity:1; fill:none" points="
  3412.51,880.48 3412.51,861.582 
  "/>
<polyline clip-path="url(#clip330)" style="stroke:#000000; stroke-linecap:butt; stroke-linejoin:round; stroke-width:4; stroke-opacity:1; fill:none" points="
  3808.94,880.48 3808.94,861.582 
  "/>
<path clip-path="url(#clip330)" d="M2583.35 951.745 L2599.67 951.745 L2599.67 955.68 L2577.72 955.68 L2577.72 951.745 Q2580.38 948.99 2584.97 944.36 Q2589.57 939.708 2590.76 938.365 Q2593 935.842 2593.88 934.106 Q2594.78 932.347 2594.78 930.657 Q2594.78 927.902 2592.84 926.166 Q2590.92 924.43 2587.82 924.43 Q2585.62 924.43 2583.16 925.194 Q2580.73 925.958 2577.95 927.509 L2577.95 922.787 Q2580.78 921.652 2583.23 921.074 Q2585.69 920.495 2587.72 920.495 Q2593.09 920.495 2596.29 923.18 Q2599.48 925.865 2599.48 930.356 Q2599.48 932.486 2598.67 934.407 Q2597.88 936.305 2595.78 938.898 Q2595.2 939.569 2592.1 942.786 Q2589 945.981 2583.35 951.745 Z" fill="#000000" fill-rule="evenodd" fill-opacity="1" /><path clip-path="url(#clip330)" d="M2619.48 924.199 Q2615.87 924.199 2614.04 927.763 Q2612.24 931.305 2612.24 938.435 Q2612.24 945.541 2614.04 949.106 Q2615.87 952.647 2619.48 952.647 Q2623.12 952.647 2624.92 949.106 Q2626.75 945.541 2626.75 938.435 Q2626.75 931.305 2624.92 927.763 Q2623.12 924.199 2619.48 924.199 M2619.48 920.495 Q2625.29 920.495 2628.35 925.101 Q2631.43 929.685 2631.43 938.435 Q2631.43 947.161 2628.35 951.768 Q2625.29 956.351 2619.48 956.351 Q2613.67 956.351 2610.59 951.768 Q2607.54 947.161 2607.54 938.435 Q2607.54 929.685 2610.59 925.101 Q2613.67 920.495 2619.48 920.495 Z" fill="#000000" fill-rule="evenodd" fill-opacity="1" /><path clip-path="url(#clip330)" d="M2649.64 924.199 Q2646.03 924.199 2644.2 927.763 Q2642.4 931.305 2642.4 938.435 Q2642.4 945.541 2644.2 949.106 Q2646.03 952.647 2649.64 952.647 Q2653.28 952.647 2655.08 949.106 Q2656.91 945.541 2656.91 938.435 Q2656.91 931.305 2655.08 927.763 Q2653.28 924.199 2649.64 924.199 M2649.64 920.495 Q2655.45 920.495 2658.51 925.101 Q2661.59 929.685 2661.59 938.435 Q2661.59 947.161 2658.51 951.768 Q2655.45 956.351 2649.64 956.351 Q2643.83 956.351 2640.75 951.768 Q2637.7 947.161 2637.7 938.435 Q2637.7 929.685 2640.75 925.101 Q2643.83 920.495 2649.64 920.495 Z" fill="#000000" fill-rule="evenodd" fill-opacity="1" /><path clip-path="url(#clip330)" d="M2989.18 925.194 L2977.37 943.643 L2989.18 943.643 L2989.18 925.194 M2987.95 921.12 L2993.83 921.12 L2993.83 943.643 L2998.76 943.643 L2998.76 947.532 L2993.83 947.532 L2993.83 955.68 L2989.18 955.68 L2989.18 947.532 L2973.57 947.532 L2973.57 943.018 L2987.95 921.12 Z" fill="#000000" fill-rule="evenodd" fill-opacity="1" /><path clip-path="url(#clip330)" d="M3016.49 924.199 Q3012.88 924.199 3011.05 927.763 Q3009.24 931.305 3009.24 938.435 Q3009.24 945.541 3011.05 949.106 Q3012.88 952.647 3016.49 952.647 Q3020.12 952.647 3021.93 949.106 Q3023.76 945.541 3023.76 938.435 Q3023.76 931.305 3021.93 927.763 Q3020.12 924.199 3016.49 924.199 M3016.49 920.495 Q3022.3 920.495 3025.36 925.101 Q3028.43 929.685 3028.43 938.435 Q3028.43 947.161 3025.36 951.768 Q3022.3 956.351 3016.49 956.351 Q3010.68 956.351 3007.6 951.768 Q3004.55 947.161 3004.55 938.435 Q3004.55 929.685 3007.6 925.101 Q3010.68 920.495 3016.49 920.495 Z" fill="#000000" fill-rule="evenodd" fill-opacity="1" /><path clip-path="url(#clip330)" d="M3046.65 924.199 Q3043.04 924.199 3041.21 927.763 Q3039.41 931.305 3039.41 938.435 Q3039.41 945.541 3041.21 949.106 Q3043.04 952.647 3046.65 952.647 Q3050.29 952.647 3052.09 949.106 Q3053.92 945.541 3053.92 938.435 Q3053.92 931.305 3052.09 927.763 Q3050.29 924.199 3046.65 924.199 M3046.65 920.495 Q3052.46 920.495 3055.52 925.101 Q3058.6 929.685 3058.6 938.435 Q3058.6 947.161 3055.52 951.768 Q3052.46 956.351 3046.65 956.351 Q3040.84 956.351 3037.76 951.768 Q3034.71 947.161 3034.71 938.435 Q3034.71 929.685 3037.76 925.101 Q3040.84 920.495 3046.65 920.495 Z" fill="#000000" fill-rule="evenodd" fill-opacity="1" /><path clip-path="url(#clip330)" d="M3382.84 936.536 Q3379.69 936.536 3377.84 938.689 Q3376.01 940.842 3376.01 944.592 Q3376.01 948.319 3377.84 950.495 Q3379.69 952.647 3382.84 952.647 Q3385.99 952.647 3387.82 950.495 Q3389.67 948.319 3389.67 944.592 Q3389.67 940.842 3387.82 938.689 Q3385.99 936.536 3382.84 936.536 M3392.12 921.884 L3392.12 926.143 Q3390.36 925.31 3388.56 924.87 Q3386.77 924.43 3385.01 924.43 Q3380.39 924.43 3377.93 927.555 Q3375.5 930.68 3375.15 936.999 Q3376.52 934.986 3378.58 933.921 Q3380.64 932.833 3383.12 932.833 Q3388.32 932.833 3391.33 936.004 Q3394.37 939.152 3394.37 944.592 Q3394.37 949.916 3391.22 953.134 Q3388.07 956.351 3382.84 956.351 Q3376.84 956.351 3373.67 951.768 Q3370.5 947.161 3370.5 938.435 Q3370.5 930.24 3374.39 925.379 Q3378.28 920.495 3384.83 920.495 Q3386.59 920.495 3388.37 920.842 Q3390.18 921.189 3392.12 921.884 Z" fill="#000000" fill-rule="evenodd" fill-opacity="1" /><path clip-path="url(#clip330)" d="M3412.42 924.199 Q3408.81 924.199 3406.98 927.763 Q3405.18 931.305 3405.18 938.435 Q3405.18 945.541 3406.98 949.106 Q3408.81 952.647 3412.42 952.647 Q3416.06 952.647 3417.86 949.106 Q3419.69 945.541 3419.69 938.435 Q3419.69 931.305 3417.86 927.763 Q3416.06 924.199 3412.42 924.199 M3412.42 920.495 Q3418.23 920.495 3421.29 925.101 Q3424.37 929.685 3424.37 938.435 Q3424.37 947.161 3421.29 951.768 Q3418.23 956.351 3412.42 956.351 Q3406.61 956.351 3403.53 951.768 Q3400.48 947.161 3400.48 938.435 Q3400.48 929.685 3403.53 925.101 Q3406.61 920.495 3412.42 920.495 Z" fill="#000000" fill-rule="evenodd" fill-opacity="1" /><path clip-path="url(#clip330)" d="M3442.58 924.199 Q3438.97 924.199 3437.14 927.763 Q3435.34 931.305 3435.34 938.435 Q3435.34 945.541 3437.14 949.106 Q3438.97 952.647 3442.58 952.647 Q3446.22 952.647 3448.02 949.106 Q3449.85 945.541 3449.85 938.435 Q3449.85 931.305 3448.02 927.763 Q3446.22 924.199 3442.58 924.199 M3442.58 920.495 Q3448.39 920.495 3451.45 925.101 Q3454.53 929.685 3454.53 938.435 Q3454.53 947.161 3451.45 951.768 Q3448.39 956.351 3442.58 956.351 Q3436.77 956.351 3433.7 951.768 Q3430.64 947.161 3430.64 938.435 Q3430.64 929.685 3433.7 925.101 Q3436.77 920.495 3442.58 920.495 Z" fill="#000000" fill-rule="evenodd" fill-opacity="1" /><path clip-path="url(#clip330)" d="M3778.74 939.268 Q3775.4 939.268 3773.48 941.05 Q3771.58 942.833 3771.58 945.958 Q3771.58 949.083 3773.48 950.865 Q3775.4 952.647 3778.74 952.647 Q3782.07 952.647 3783.99 950.865 Q3785.91 949.06 3785.91 945.958 Q3785.91 942.833 3783.99 941.05 Q3782.09 939.268 3778.74 939.268 M3774.06 937.277 Q3771.05 936.536 3769.36 934.476 Q3767.69 932.416 3767.69 929.453 Q3767.69 925.31 3770.63 922.902 Q3773.6 920.495 3778.74 920.495 Q3783.9 920.495 3786.84 922.902 Q3789.78 925.31 3789.78 929.453 Q3789.78 932.416 3788.09 934.476 Q3786.42 936.536 3783.44 937.277 Q3786.81 938.064 3788.69 940.356 Q3790.59 942.648 3790.59 945.958 Q3790.59 950.981 3787.51 953.666 Q3784.45 956.351 3778.74 956.351 Q3773.02 956.351 3769.94 953.666 Q3766.88 950.981 3766.88 945.958 Q3766.88 942.648 3768.78 940.356 Q3770.68 938.064 3774.06 937.277 M3772.35 929.893 Q3772.35 932.578 3774.01 934.083 Q3775.7 935.587 3778.74 935.587 Q3781.75 935.587 3783.44 934.083 Q3785.15 932.578 3785.15 929.893 Q3785.15 927.208 3783.44 925.703 Q3781.75 924.199 3778.74 924.199 Q3775.7 924.199 3774.01 925.703 Q3772.35 927.208 3772.35 929.893 Z" fill="#000000" fill-rule="evenodd" fill-opacity="1" /><path clip-path="url(#clip330)" d="M3808.9 924.199 Q3805.29 924.199 3803.46 927.763 Q3801.65 931.305 3801.65 938.435 Q3801.65 945.541 3803.46 949.106 Q3805.29 952.647 3808.9 952.647 Q3812.53 952.647 3814.34 949.106 Q3816.17 945.541 3816.17 938.435 Q3816.17 931.305 3814.34 927.763 Q3812.53 924.199 3808.9 924.199 M3808.9 920.495 Q3814.71 920.495 3817.76 925.101 Q3820.84 929.685 3820.84 938.435 Q3820.84 947.161 3817.76 951.768 Q3814.71 956.351 3808.9 956.351 Q3803.09 956.351 3800.01 951.768 Q3796.95 947.161 3796.95 938.435 Q3796.95 929.685 3800.01 925.101 Q3803.09 920.495 3808.9 920.495 Z" fill="#000000" fill-rule="evenodd" fill-opacity="1" /><path clip-path="url(#clip330)" d="M3839.06 924.199 Q3835.45 924.199 3833.62 927.763 Q3831.81 931.305 3831.81 938.435 Q3831.81 945.541 3833.62 949.106 Q3835.45 952.647 3839.06 952.647 Q3842.69 952.647 3844.5 949.106 Q3846.33 945.541 3846.33 938.435 Q3846.33 931.305 3844.5 927.763 Q3842.69 924.199 3839.06 924.199 M3839.06 920.495 Q3844.87 920.495 3847.93 925.101 Q3851 929.685 3851 938.435 Q3851 947.161 3847.93 951.768 Q3844.87 956.351 3839.06 956.351 Q3833.25 956.351 3830.17 951.768 Q3827.12 947.161 3827.12 938.435 Q3827.12 929.685 3830.17 925.101 Q3833.25 920.495 3839.06 920.495 Z" fill="#000000" fill-rule="evenodd" fill-opacity="1" /><path clip-path="url(#clip330)" d="M2911.28 1003.38 L2911.28 1009.65 Q2907.62 1007.9 2904.37 1007.04 Q2901.12 1006.18 2898.1 1006.18 Q2892.85 1006.18 2889.98 1008.22 Q2887.15 1010.26 2887.15 1014.01 Q2887.15 1017.17 2889.03 1018.79 Q2890.94 1020.38 2896.22 1021.37 L2900.1 1022.16 Q2907.3 1023.53 2910.7 1027 Q2914.14 1030.44 2914.14 1036.23 Q2914.14 1043.14 2909.49 1046.7 Q2904.88 1050.27 2895.93 1050.27 Q2892.56 1050.27 2888.74 1049.5 Q2884.95 1048.74 2880.88 1047.24 L2880.88 1040.62 Q2884.79 1042.82 2888.55 1043.93 Q2892.31 1045.05 2895.93 1045.05 Q2901.44 1045.05 2904.43 1042.88 Q2907.42 1040.72 2907.42 1036.71 Q2907.42 1033.21 2905.26 1031.23 Q2903.13 1029.26 2898.23 1028.27 L2894.31 1027.51 Q2887.12 1026.08 2883.9 1023.02 Q2880.69 1019.97 2880.69 1014.52 Q2880.69 1008.22 2885.11 1004.59 Q2889.57 1000.96 2897.37 1000.96 Q2900.71 1000.96 2904.18 1001.57 Q2907.65 1002.17 2911.28 1003.38 Z" fill="#000000" fill-rule="evenodd" fill-opacity="1" /><path clip-path="url(#clip330)" d="M2940.11 1031.42 Q2933.02 1031.42 2930.28 1033.05 Q2927.54 1034.67 2927.54 1038.59 Q2927.54 1041.7 2929.58 1043.55 Q2931.65 1045.37 2935.18 1045.37 Q2940.05 1045.37 2942.98 1041.93 Q2945.94 1038.46 2945.94 1032.73 L2945.94 1031.42 L2940.11 1031.42 M2951.79 1029.01 L2951.79 1049.34 L2945.94 1049.34 L2945.94 1043.93 Q2943.93 1047.18 2940.94 1048.74 Q2937.95 1050.27 2933.62 1050.27 Q2928.15 1050.27 2924.9 1047.21 Q2921.68 1044.12 2921.68 1038.97 Q2921.68 1032.95 2925.69 1029.9 Q2929.74 1026.84 2937.73 1026.84 L2945.94 1026.84 L2945.94 1026.27 Q2945.94 1022.23 2943.26 1020.03 Q2940.62 1017.8 2935.82 1017.8 Q2932.76 1017.8 2929.86 1018.53 Q2926.97 1019.27 2924.29 1020.73 L2924.29 1015.32 Q2927.51 1014.08 2930.53 1013.47 Q2933.56 1012.84 2936.42 1012.84 Q2944.16 1012.84 2947.97 1016.85 Q2951.79 1020.86 2951.79 1029.01 Z" fill="#000000" fill-rule="evenodd" fill-opacity="1" /><path clip-path="url(#clip330)" d="M2991.61 1020.54 Q2993.81 1016.59 2996.86 1014.71 Q2999.92 1012.84 3004.06 1012.84 Q3009.63 1012.84 3012.65 1016.75 Q3015.67 1020.63 3015.67 1027.83 L3015.67 1049.34 L3009.79 1049.34 L3009.79 1028.02 Q3009.79 1022.89 3007.97 1020.41 Q3006.16 1017.93 3002.43 1017.93 Q2997.88 1017.93 2995.24 1020.95 Q2992.6 1023.98 2992.6 1029.2 L2992.6 1049.34 L2986.71 1049.34 L2986.71 1028.02 Q2986.71 1022.86 2984.9 1020.41 Q2983.08 1017.93 2979.29 1017.93 Q2974.81 1017.93 2972.16 1020.98 Q2969.52 1024.01 2969.52 1029.2 L2969.52 1049.34 L2963.63 1049.34 L2963.63 1013.7 L2969.52 1013.7 L2969.52 1019.23 Q2971.53 1015.96 2974.33 1014.4 Q2977.13 1012.84 2980.98 1012.84 Q2984.86 1012.84 2987.57 1014.81 Q2990.31 1016.78 2991.61 1020.54 Z" fill="#000000" fill-rule="evenodd" fill-opacity="1" /><path clip-path="url(#clip330)" d="M3033.02 1044 L3033.02 1062.9 L3027.13 1062.9 L3027.13 1013.7 L3033.02 1013.7 L3033.02 1019.11 Q3034.87 1015.92 3037.67 1014.4 Q3040.5 1012.84 3044.41 1012.84 Q3050.91 1012.84 3054.95 1017.99 Q3059.02 1023.15 3059.02 1031.55 Q3059.02 1039.95 3054.95 1045.11 Q3050.91 1050.27 3044.41 1050.27 Q3040.5 1050.27 3037.67 1048.74 Q3034.87 1047.18 3033.02 1044 M3052.95 1031.55 Q3052.95 1025.09 3050.27 1021.43 Q3047.63 1017.74 3042.98 1017.74 Q3038.34 1017.74 3035.66 1021.43 Q3033.02 1025.09 3033.02 1031.55 Q3033.02 1038.01 3035.66 1041.7 Q3038.34 1045.37 3042.98 1045.37 Q3047.63 1045.37 3050.27 1041.7 Q3052.95 1038.01 3052.95 1031.55 Z" fill="#000000" fill-rule="evenodd" fill-opacity="1" /><path clip-path="url(#clip330)" d="M3068.73 999.819 L3074.59 999.819 L3074.59 1049.34 L3068.73 1049.34 L3068.73 999.819 Z" fill="#000000" fill-rule="evenodd" fill-opacity="1" /><path clip-path="url(#clip330)" d="M3117.33 1030.06 L3117.33 1032.92 L3090.41 1032.92 Q3090.79 1038.97 3094.04 1042.15 Q3097.31 1045.3 3103.14 1045.3 Q3106.51 1045.3 3109.66 1044.47 Q3112.85 1043.65 3115.97 1041.99 L3115.97 1047.53 Q3112.81 1048.87 3109.5 1049.57 Q3106.19 1050.27 3102.79 1050.27 Q3094.26 1050.27 3089.26 1045.3 Q3084.3 1040.34 3084.3 1031.87 Q3084.3 1023.12 3089.01 1017.99 Q3093.75 1012.84 3101.77 1012.84 Q3108.96 1012.84 3113.13 1017.48 Q3117.33 1022.1 3117.33 1030.06 M3111.48 1028.34 Q3111.41 1023.53 3108.77 1020.67 Q3106.16 1017.8 3101.83 1017.8 Q3096.93 1017.8 3093.97 1020.57 Q3091.04 1023.34 3090.6 1028.37 L3111.48 1028.34 Z" fill="#000000" fill-rule="evenodd" fill-opacity="1" /><path clip-path="url(#clip330)" d="M3143.47 1013.7 L3149.67 1013.7 L3160.81 1043.61 L3171.95 1013.7 L3178.16 1013.7 L3164.79 1049.34 L3156.83 1049.34 L3143.47 1013.7 Z" fill="#000000" fill-rule="evenodd" fill-opacity="1" /><path clip-path="url(#clip330)" d="M3202.44 1031.42 Q3195.35 1031.42 3192.61 1033.05 Q3189.87 1034.67 3189.87 1038.59 Q3189.87 1041.7 3191.91 1043.55 Q3193.98 1045.37 3197.51 1045.37 Q3202.38 1045.37 3205.31 1041.93 Q3208.27 1038.46 3208.27 1032.73 L3208.27 1031.42 L3202.44 1031.42 M3214.12 1029.01 L3214.12 1049.34 L3208.27 1049.34 L3208.27 1043.93 Q3206.26 1047.18 3203.27 1048.74 Q3200.28 1050.27 3195.95 1050.27 Q3190.48 1050.27 3187.23 1047.21 Q3184.01 1044.12 3184.01 1038.97 Q3184.01 1032.95 3188.03 1029.9 Q3192.07 1026.84 3200.06 1026.84 L3208.27 1026.84 L3208.27 1026.27 Q3208.27 1022.23 3205.59 1020.03 Q3202.95 1017.8 3198.15 1017.8 Q3195.09 1017.8 3192.19 1018.53 Q3189.3 1019.27 3186.62 1020.73 L3186.62 1015.32 Q3189.84 1014.08 3192.86 1013.47 Q3195.89 1012.84 3198.75 1012.84 Q3206.49 1012.84 3210.31 1016.85 Q3214.12 1020.86 3214.12 1029.01 Z" fill="#000000" fill-rule="evenodd" fill-opacity="1" /><path clip-path="url(#clip330)" d="M3226.19 999.819 L3232.04 999.819 L3232.04 1049.34 L3226.19 1049.34 L3226.19 999.819 Z" fill="#000000" fill-rule="evenodd" fill-opacity="1" /><path clip-path="url(#clip330)" d="M3243.69 1035.28 L3243.69 1013.7 L3249.55 1013.7 L3249.55 1035.05 Q3249.55 1040.11 3251.52 1042.66 Q3253.5 1045.17 3257.44 1045.17 Q3262.19 1045.17 3264.92 1042.15 Q3267.69 1039.13 3267.69 1033.91 L3267.69 1013.7 L3273.55 1013.7 L3273.55 1049.34 L3267.69 1049.34 L3267.69 1043.87 Q3265.56 1047.12 3262.73 1048.71 Q3259.93 1050.27 3256.2 1050.27 Q3250.06 1050.27 3246.88 1046.45 Q3243.69 1042.63 3243.69 1035.28 M3258.43 1012.84 L3258.43 1012.84 Z" fill="#000000" fill-rule="evenodd" fill-opacity="1" /><path clip-path="url(#clip330)" d="M3316.1 1030.06 L3316.1 1032.92 L3289.18 1032.92 Q3289.56 1038.97 3292.8 1042.15 Q3296.08 1045.3 3301.91 1045.3 Q3305.28 1045.3 3308.43 1044.47 Q3311.62 1043.65 3314.73 1041.99 L3314.73 1047.53 Q3311.58 1048.87 3308.27 1049.57 Q3304.96 1050.27 3301.56 1050.27 Q3293.03 1050.27 3288.03 1045.3 Q3283.07 1040.34 3283.07 1031.87 Q3283.07 1023.12 3287.78 1017.99 Q3292.52 1012.84 3300.54 1012.84 Q3307.73 1012.84 3311.9 1017.48 Q3316.1 1022.1 3316.1 1030.06 M3310.25 1028.34 Q3310.18 1023.53 3307.54 1020.67 Q3304.93 1017.8 3300.6 1017.8 Q3295.7 1017.8 3292.74 1020.57 Q3289.81 1023.34 3289.37 1028.37 L3310.25 1028.34 Z" fill="#000000" fill-rule="evenodd" fill-opacity="1" /><polyline clip-path="url(#clip333)" style="stroke:#000000; stroke-linecap:butt; stroke-linejoin:round; stroke-width:2; stroke-opacity:0.1; fill:none" points="
  2244.04,857.985 3952.76,857.985 
  "/>
<polyline clip-path="url(#clip333)" style="stroke:#000000; stroke-linecap:butt; stroke-linejoin:round; stroke-width:2; stroke-opacity:0.1; fill:none" points="
  2244.04,745.92 3952.76,745.92 
  "/>
<polyline clip-path="url(#clip333)" style="stroke:#000000; stroke-linecap:butt; stroke-linejoin:round; stroke-width:2; stroke-opacity:0.1; fill:none" points="
  2244.04,633.855 3952.76,633.855 
  "/>
<polyline clip-path="url(#clip333)" style="stroke:#000000; stroke-linecap:butt; stroke-linejoin:round; stroke-width:2; stroke-opacity:0.1; fill:none" points="
  2244.04,521.79 3952.76,521.79 
  "/>
<polyline clip-path="url(#clip333)" style="stroke:#000000; stroke-linecap:butt; stroke-linejoin:round; stroke-width:2; stroke-opacity:0.1; fill:none" points="
  2244.04,409.725 3952.76,409.725 
  "/>
<polyline clip-path="url(#clip333)" style="stroke:#000000; stroke-linecap:butt; stroke-linejoin:round; stroke-width:2; stroke-opacity:0.1; fill:none" points="
  2244.04,297.66 3952.76,297.66 
  "/>
<polyline clip-path="url(#clip333)" style="stroke:#000000; stroke-linecap:butt; stroke-linejoin:round; stroke-width:2; stroke-opacity:0.1; fill:none" points="
  2244.04,185.595 3952.76,185.595 
  "/>
<polyline clip-path="url(#clip330)" style="stroke:#000000; stroke-linecap:butt; stroke-linejoin:round; stroke-width:4; stroke-opacity:1; fill:none" points="
  2244.04,880.48 2244.04,85.6721 
  "/>
<polyline clip-path="url(#clip330)" style="stroke:#000000; stroke-linecap:butt; stroke-linejoin:round; stroke-width:4; stroke-opacity:1; fill:none" points="
  2244.04,857.985 2262.93,857.985 
  "/>
<polyline clip-path="url(#clip330)" style="stroke:#000000; stroke-linecap:butt; stroke-linejoin:round; stroke-width:4; stroke-opacity:1; fill:none" points="
  2244.04,745.92 2262.93,745.92 
  "/>
<polyline clip-path="url(#clip330)" style="stroke:#000000; stroke-linecap:butt; stroke-linejoin:round; stroke-width:4; stroke-opacity:1; fill:none" points="
  2244.04,633.855 2262.93,633.855 
  "/>
<polyline clip-path="url(#clip330)" style="stroke:#000000; stroke-linecap:butt; stroke-linejoin:round; stroke-width:4; stroke-opacity:1; fill:none" points="
  2244.04,521.79 2262.93,521.79 
  "/>
<polyline clip-path="url(#clip330)" style="stroke:#000000; stroke-linecap:butt; stroke-linejoin:round; stroke-width:4; stroke-opacity:1; fill:none" points="
  2244.04,409.725 2262.93,409.725 
  "/>
<polyline clip-path="url(#clip330)" style="stroke:#000000; stroke-linecap:butt; stroke-linejoin:round; stroke-width:4; stroke-opacity:1; fill:none" points="
  2244.04,297.66 2262.93,297.66 
  "/>
<polyline clip-path="url(#clip330)" style="stroke:#000000; stroke-linecap:butt; stroke-linejoin:round; stroke-width:4; stroke-opacity:1; fill:none" points="
  2244.04,185.595 2262.93,185.595 
  "/>
<path clip-path="url(#clip330)" d="M2066.54 843.784 Q2062.93 843.784 2061.1 847.349 Q2059.29 850.89 2059.29 858.02 Q2059.29 865.126 2061.1 868.691 Q2062.93 872.233 2066.54 872.233 Q2070.17 872.233 2071.98 868.691 Q2073.81 865.126 2073.81 858.02 Q2073.81 850.89 2071.98 847.349 Q2070.17 843.784 2066.54 843.784 M2066.54 840.08 Q2072.35 840.08 2075.4 844.687 Q2078.48 849.27 2078.48 858.02 Q2078.48 866.747 2075.4 871.353 Q2072.35 875.937 2066.54 875.937 Q2060.73 875.937 2057.65 871.353 Q2054.59 866.747 2054.59 858.02 Q2054.59 849.27 2057.65 844.687 Q2060.73 840.08 2066.54 840.08 Z" fill="#000000" fill-rule="evenodd" fill-opacity="1" /><path clip-path="url(#clip330)" d="M2086.7 869.386 L2091.58 869.386 L2091.58 875.265 L2086.7 875.265 L2086.7 869.386 Z" fill="#000000" fill-rule="evenodd" fill-opacity="1" /><path clip-path="url(#clip330)" d="M2111.77 843.784 Q2108.16 843.784 2106.33 847.349 Q2104.52 850.89 2104.52 858.02 Q2104.52 865.126 2106.33 868.691 Q2108.16 872.233 2111.77 872.233 Q2115.4 872.233 2117.21 868.691 Q2119.04 865.126 2119.04 858.02 Q2119.04 850.89 2117.21 847.349 Q2115.4 843.784 2111.77 843.784 M2111.77 840.08 Q2117.58 840.08 2120.63 844.687 Q2123.71 849.27 2123.71 858.02 Q2123.71 866.747 2120.63 871.353 Q2117.58 875.937 2111.77 875.937 Q2105.96 875.937 2102.88 871.353 Q2099.82 866.747 2099.82 858.02 Q2099.82 849.27 2102.88 844.687 Q2105.96 840.08 2111.77 840.08 Z" fill="#000000" fill-rule="evenodd" fill-opacity="1" /><path clip-path="url(#clip330)" d="M2141.93 843.784 Q2138.32 843.784 2136.49 847.349 Q2134.68 850.89 2134.68 858.02 Q2134.68 865.126 2136.49 868.691 Q2138.32 872.233 2141.93 872.233 Q2145.56 872.233 2147.37 868.691 Q2149.2 865.126 2149.2 858.02 Q2149.2 850.89 2147.37 847.349 Q2145.56 843.784 2141.93 843.784 M2141.93 840.08 Q2147.74 840.08 2150.8 844.687 Q2153.87 849.27 2153.87 858.02 Q2153.87 866.747 2150.8 871.353 Q2147.74 875.937 2141.93 875.937 Q2136.12 875.937 2133.04 871.353 Q2129.99 866.747 2129.99 858.02 Q2129.99 849.27 2133.04 844.687 Q2136.12 840.08 2141.93 840.08 Z" fill="#000000" fill-rule="evenodd" fill-opacity="1" /><path clip-path="url(#clip330)" d="M2172.09 843.784 Q2168.48 843.784 2166.65 847.349 Q2164.85 850.89 2164.85 858.02 Q2164.85 865.126 2166.65 868.691 Q2168.48 872.233 2172.09 872.233 Q2175.73 872.233 2177.53 868.691 Q2179.36 865.126 2179.36 858.02 Q2179.36 850.89 2177.53 847.349 Q2175.73 843.784 2172.09 843.784 M2172.09 840.08 Q2177.9 840.08 2180.96 844.687 Q2184.04 849.27 2184.04 858.02 Q2184.04 866.747 2180.96 871.353 Q2177.9 875.937 2172.09 875.937 Q2166.28 875.937 2163.2 871.353 Q2160.15 866.747 2160.15 858.02 Q2160.15 849.27 2163.2 844.687 Q2166.28 840.08 2172.09 840.08 Z" fill="#000000" fill-rule="evenodd" fill-opacity="1" /><path clip-path="url(#clip330)" d="M2067.76 731.719 Q2064.15 731.719 2062.32 735.284 Q2060.52 738.825 2060.52 745.955 Q2060.52 753.061 2062.32 756.626 Q2064.15 760.168 2067.76 760.168 Q2071.4 760.168 2073.2 756.626 Q2075.03 753.061 2075.03 745.955 Q2075.03 738.825 2073.2 735.284 Q2071.4 731.719 2067.76 731.719 M2067.76 728.015 Q2073.57 728.015 2076.63 732.622 Q2079.71 737.205 2079.71 745.955 Q2079.71 754.682 2076.63 759.288 Q2073.57 763.872 2067.76 763.872 Q2061.95 763.872 2058.88 759.288 Q2055.82 754.682 2055.82 745.955 Q2055.82 737.205 2058.88 732.622 Q2061.95 728.015 2067.76 728.015 Z" fill="#000000" fill-rule="evenodd" fill-opacity="1" /><path clip-path="url(#clip330)" d="M2087.93 757.321 L2092.81 757.321 L2092.81 763.2 L2087.93 763.2 L2087.93 757.321 Z" fill="#000000" fill-rule="evenodd" fill-opacity="1" /><path clip-path="url(#clip330)" d="M2113 731.719 Q2109.38 731.719 2107.56 735.284 Q2105.75 738.825 2105.75 745.955 Q2105.75 753.061 2107.56 756.626 Q2109.38 760.168 2113 760.168 Q2116.63 760.168 2118.43 756.626 Q2120.26 753.061 2120.26 745.955 Q2120.26 738.825 2118.43 735.284 Q2116.63 731.719 2113 731.719 M2113 728.015 Q2118.81 728.015 2121.86 732.622 Q2124.94 737.205 2124.94 745.955 Q2124.94 754.682 2121.86 759.288 Q2118.81 763.872 2113 763.872 Q2107.18 763.872 2104.11 759.288 Q2101.05 754.682 2101.05 745.955 Q2101.05 737.205 2104.11 732.622 Q2107.18 728.015 2113 728.015 Z" fill="#000000" fill-rule="evenodd" fill-opacity="1" /><path clip-path="url(#clip330)" d="M2143.16 731.719 Q2139.55 731.719 2137.72 735.284 Q2135.91 738.825 2135.91 745.955 Q2135.91 753.061 2137.72 756.626 Q2139.55 760.168 2143.16 760.168 Q2146.79 760.168 2148.6 756.626 Q2150.43 753.061 2150.43 745.955 Q2150.43 738.825 2148.6 735.284 Q2146.79 731.719 2143.16 731.719 M2143.16 728.015 Q2148.97 728.015 2152.02 732.622 Q2155.1 737.205 2155.1 745.955 Q2155.1 754.682 2152.02 759.288 Q2148.97 763.872 2143.16 763.872 Q2137.35 763.872 2134.27 759.288 Q2131.21 754.682 2131.21 745.955 Q2131.21 737.205 2134.27 732.622 Q2137.35 728.015 2143.16 728.015 Z" fill="#000000" fill-rule="evenodd" fill-opacity="1" /><path clip-path="url(#clip330)" d="M2164.13 759.265 L2171.77 759.265 L2171.77 732.899 L2163.46 734.566 L2163.46 730.307 L2171.72 728.64 L2176.4 728.64 L2176.4 759.265 L2184.04 759.265 L2184.04 763.2 L2164.13 763.2 L2164.13 759.265 Z" fill="#000000" fill-rule="evenodd" fill-opacity="1" /><path clip-path="url(#clip330)" d="M2068.13 619.654 Q2064.52 619.654 2062.69 623.219 Q2060.89 626.76 2060.89 633.89 Q2060.89 640.996 2062.69 644.561 Q2064.52 648.103 2068.13 648.103 Q2071.77 648.103 2073.57 644.561 Q2075.4 640.996 2075.4 633.89 Q2075.4 626.76 2073.57 623.219 Q2071.77 619.654 2068.13 619.654 M2068.13 615.95 Q2073.94 615.95 2077 620.557 Q2080.08 625.14 2080.08 633.89 Q2080.08 642.617 2077 647.223 Q2073.94 651.806 2068.13 651.806 Q2062.32 651.806 2059.25 647.223 Q2056.19 642.617 2056.19 633.89 Q2056.19 625.14 2059.25 620.557 Q2062.32 615.95 2068.13 615.95 Z" fill="#000000" fill-rule="evenodd" fill-opacity="1" /><path clip-path="url(#clip330)" d="M2088.3 645.256 L2093.18 645.256 L2093.18 651.135 L2088.3 651.135 L2088.3 645.256 Z" fill="#000000" fill-rule="evenodd" fill-opacity="1" /><path clip-path="url(#clip330)" d="M2113.37 619.654 Q2109.75 619.654 2107.93 623.219 Q2106.12 626.76 2106.12 633.89 Q2106.12 640.996 2107.93 644.561 Q2109.75 648.103 2113.37 648.103 Q2117 648.103 2118.81 644.561 Q2120.63 640.996 2120.63 633.89 Q2120.63 626.76 2118.81 623.219 Q2117 619.654 2113.37 619.654 M2113.37 615.95 Q2119.18 615.95 2122.23 620.557 Q2125.31 625.14 2125.31 633.89 Q2125.31 642.617 2122.23 647.223 Q2119.18 651.806 2113.37 651.806 Q2107.56 651.806 2104.48 647.223 Q2101.42 642.617 2101.42 633.89 Q2101.42 625.14 2104.48 620.557 Q2107.56 615.95 2113.37 615.95 Z" fill="#000000" fill-rule="evenodd" fill-opacity="1" /><path clip-path="url(#clip330)" d="M2143.53 619.654 Q2139.92 619.654 2138.09 623.219 Q2136.28 626.76 2136.28 633.89 Q2136.28 640.996 2138.09 644.561 Q2139.92 648.103 2143.53 648.103 Q2147.16 648.103 2148.97 644.561 Q2150.8 640.996 2150.8 633.89 Q2150.8 626.76 2148.97 623.219 Q2147.16 619.654 2143.53 619.654 M2143.53 615.95 Q2149.34 615.95 2152.39 620.557 Q2155.47 625.14 2155.47 633.89 Q2155.47 642.617 2152.39 647.223 Q2149.34 651.806 2143.53 651.806 Q2137.72 651.806 2134.64 647.223 Q2131.58 642.617 2131.58 633.89 Q2131.58 625.14 2134.64 620.557 Q2137.72 615.95 2143.53 615.95 Z" fill="#000000" fill-rule="evenodd" fill-opacity="1" /><path clip-path="url(#clip330)" d="M2167.72 647.2 L2184.04 647.2 L2184.04 651.135 L2162.09 651.135 L2162.09 647.2 Q2164.75 644.445 2169.34 639.816 Q2173.94 635.163 2175.12 633.82 Q2177.37 631.297 2178.25 629.561 Q2179.15 627.802 2179.15 626.112 Q2179.15 623.358 2177.21 621.621 Q2175.29 619.885 2172.18 619.885 Q2169.99 619.885 2167.53 620.649 Q2165.1 621.413 2162.32 622.964 L2162.32 618.242 Q2165.15 617.108 2167.6 616.529 Q2170.06 615.95 2172.09 615.95 Q2177.46 615.95 2180.66 618.635 Q2183.85 621.32 2183.85 625.811 Q2183.85 627.941 2183.04 629.862 Q2182.25 631.76 2180.15 634.353 Q2179.57 635.024 2176.47 638.242 Q2173.37 641.436 2167.72 647.2 Z" fill="#000000" fill-rule="evenodd" fill-opacity="1" /><path clip-path="url(#clip330)" d="M2067.19 507.589 Q2063.57 507.589 2061.75 511.154 Q2059.94 514.695 2059.94 521.825 Q2059.94 528.931 2061.75 532.496 Q2063.57 536.038 2067.19 536.038 Q2070.82 536.038 2072.62 532.496 Q2074.45 528.931 2074.45 521.825 Q2074.45 514.695 2072.62 511.154 Q2070.82 507.589 2067.19 507.589 M2067.19 503.885 Q2073 503.885 2076.05 508.492 Q2079.13 513.075 2079.13 521.825 Q2079.13 530.552 2076.05 535.158 Q2073 539.741 2067.19 539.741 Q2061.38 539.741 2058.3 535.158 Q2055.24 530.552 2055.24 521.825 Q2055.24 513.075 2058.3 508.492 Q2061.38 503.885 2067.19 503.885 Z" fill="#000000" fill-rule="evenodd" fill-opacity="1" /><path clip-path="url(#clip330)" d="M2087.35 533.19 L2092.23 533.19 L2092.23 539.07 L2087.35 539.07 L2087.35 533.19 Z" fill="#000000" fill-rule="evenodd" fill-opacity="1" /><path clip-path="url(#clip330)" d="M2112.42 507.589 Q2108.81 507.589 2106.98 511.154 Q2105.17 514.695 2105.17 521.825 Q2105.17 528.931 2106.98 532.496 Q2108.81 536.038 2112.42 536.038 Q2116.05 536.038 2117.86 532.496 Q2119.68 528.931 2119.68 521.825 Q2119.68 514.695 2117.86 511.154 Q2116.05 507.589 2112.42 507.589 M2112.42 503.885 Q2118.23 503.885 2121.28 508.492 Q2124.36 513.075 2124.36 521.825 Q2124.36 530.552 2121.28 535.158 Q2118.23 539.741 2112.42 539.741 Q2106.61 539.741 2103.53 535.158 Q2100.47 530.552 2100.47 521.825 Q2100.47 513.075 2103.53 508.492 Q2106.61 503.885 2112.42 503.885 Z" fill="#000000" fill-rule="evenodd" fill-opacity="1" /><path clip-path="url(#clip330)" d="M2142.58 507.589 Q2138.97 507.589 2137.14 511.154 Q2135.33 514.695 2135.33 521.825 Q2135.33 528.931 2137.14 532.496 Q2138.97 536.038 2142.58 536.038 Q2146.21 536.038 2148.02 532.496 Q2149.85 528.931 2149.85 521.825 Q2149.85 514.695 2148.02 511.154 Q2146.21 507.589 2142.58 507.589 M2142.58 503.885 Q2148.39 503.885 2151.44 508.492 Q2154.52 513.075 2154.52 521.825 Q2154.52 530.552 2151.44 535.158 Q2148.39 539.741 2142.58 539.741 Q2136.77 539.741 2133.69 535.158 Q2130.63 530.552 2130.63 521.825 Q2130.63 513.075 2133.69 508.492 Q2136.77 503.885 2142.58 503.885 Z" fill="#000000" fill-rule="evenodd" fill-opacity="1" /><path clip-path="url(#clip330)" d="M2176.91 520.436 Q2180.26 521.154 2182.14 523.422 Q2184.04 525.691 2184.04 529.024 Q2184.04 534.14 2180.52 536.94 Q2177 539.741 2170.52 539.741 Q2168.34 539.741 2166.03 539.302 Q2163.74 538.885 2161.28 538.028 L2161.28 533.515 Q2163.23 534.649 2165.54 535.227 Q2167.86 535.806 2170.38 535.806 Q2174.78 535.806 2177.07 534.07 Q2179.38 532.334 2179.38 529.024 Q2179.38 525.968 2177.23 524.255 Q2175.1 522.519 2171.28 522.519 L2167.25 522.519 L2167.25 518.677 L2171.47 518.677 Q2174.92 518.677 2176.74 517.311 Q2178.57 515.922 2178.57 513.329 Q2178.57 510.667 2176.68 509.255 Q2174.8 507.82 2171.28 507.82 Q2169.36 507.82 2167.16 508.237 Q2164.96 508.654 2162.32 509.533 L2162.32 505.367 Q2164.99 504.626 2167.3 504.255 Q2169.64 503.885 2171.7 503.885 Q2177.02 503.885 2180.12 506.316 Q2183.23 508.723 2183.23 512.843 Q2183.23 515.714 2181.58 517.704 Q2179.94 519.672 2176.91 520.436 Z" fill="#000000" fill-rule="evenodd" fill-opacity="1" /><path clip-path="url(#clip330)" d="M2066.05 395.524 Q2062.44 395.524 2060.61 399.088 Q2058.81 402.63 2058.81 409.76 Q2058.81 416.866 2060.61 420.431 Q2062.44 423.973 2066.05 423.973 Q2069.69 423.973 2071.49 420.431 Q2073.32 416.866 2073.32 409.76 Q2073.32 402.63 2071.49 399.088 Q2069.69 395.524 2066.05 395.524 M2066.05 391.82 Q2071.86 391.82 2074.92 396.426 Q2078 401.01 2078 409.76 Q2078 418.487 2074.92 423.093 Q2071.86 427.676 2066.05 427.676 Q2060.24 427.676 2057.16 423.093 Q2054.11 418.487 2054.11 409.76 Q2054.11 401.01 2057.16 396.426 Q2060.24 391.82 2066.05 391.82 Z" fill="#000000" fill-rule="evenodd" fill-opacity="1" /><path clip-path="url(#clip330)" d="M2086.21 421.125 L2091.1 421.125 L2091.1 427.005 L2086.21 427.005 L2086.21 421.125 Z" fill="#000000" fill-rule="evenodd" fill-opacity="1" /><path clip-path="url(#clip330)" d="M2111.28 395.524 Q2107.67 395.524 2105.84 399.088 Q2104.04 402.63 2104.04 409.76 Q2104.04 416.866 2105.84 420.431 Q2107.67 423.973 2111.28 423.973 Q2114.92 423.973 2116.72 420.431 Q2118.55 416.866 2118.55 409.76 Q2118.55 402.63 2116.72 399.088 Q2114.92 395.524 2111.28 395.524 M2111.28 391.82 Q2117.09 391.82 2120.15 396.426 Q2123.23 401.01 2123.23 409.76 Q2123.23 418.487 2120.15 423.093 Q2117.09 427.676 2111.28 427.676 Q2105.47 427.676 2102.39 423.093 Q2099.34 418.487 2099.34 409.76 Q2099.34 401.01 2102.39 396.426 Q2105.47 391.82 2111.28 391.82 Z" fill="#000000" fill-rule="evenodd" fill-opacity="1" /><path clip-path="url(#clip330)" d="M2141.44 395.524 Q2137.83 395.524 2136 399.088 Q2134.2 402.63 2134.2 409.76 Q2134.2 416.866 2136 420.431 Q2137.83 423.973 2141.44 423.973 Q2145.08 423.973 2146.88 420.431 Q2148.71 416.866 2148.71 409.76 Q2148.71 402.63 2146.88 399.088 Q2145.08 395.524 2141.44 395.524 M2141.44 391.82 Q2147.25 391.82 2150.31 396.426 Q2153.39 401.01 2153.39 409.76 Q2153.39 418.487 2150.31 423.093 Q2147.25 427.676 2141.44 427.676 Q2135.63 427.676 2132.56 423.093 Q2129.5 418.487 2129.5 409.76 Q2129.5 401.01 2132.56 396.426 Q2135.63 391.82 2141.44 391.82 Z" fill="#000000" fill-rule="evenodd" fill-opacity="1" /><path clip-path="url(#clip330)" d="M2174.45 396.519 L2162.65 414.968 L2174.45 414.968 L2174.45 396.519 M2173.23 392.445 L2179.11 392.445 L2179.11 414.968 L2184.04 414.968 L2184.04 418.857 L2179.11 418.857 L2179.11 427.005 L2174.45 427.005 L2174.45 418.857 L2158.85 418.857 L2158.85 414.343 L2173.23 392.445 Z" fill="#000000" fill-rule="evenodd" fill-opacity="1" /><path clip-path="url(#clip330)" d="M2067.53 283.459 Q2063.92 283.459 2062.09 287.023 Q2060.29 290.565 2060.29 297.695 Q2060.29 304.801 2062.09 308.366 Q2063.92 311.908 2067.53 311.908 Q2071.17 311.908 2072.97 308.366 Q2074.8 304.801 2074.8 297.695 Q2074.8 290.565 2072.97 287.023 Q2071.17 283.459 2067.53 283.459 M2067.53 279.755 Q2073.34 279.755 2076.4 284.361 Q2079.48 288.945 2079.48 297.695 Q2079.48 306.421 2076.4 311.028 Q2073.34 315.611 2067.53 315.611 Q2061.72 315.611 2058.64 311.028 Q2055.59 306.421 2055.59 297.695 Q2055.59 288.945 2058.64 284.361 Q2061.72 279.755 2067.53 279.755 Z" fill="#000000" fill-rule="evenodd" fill-opacity="1" /><path clip-path="url(#clip330)" d="M2087.69 309.06 L2092.58 309.06 L2092.58 314.94 L2087.69 314.94 L2087.69 309.06 Z" fill="#000000" fill-rule="evenodd" fill-opacity="1" /><path clip-path="url(#clip330)" d="M2112.76 283.459 Q2109.15 283.459 2107.32 287.023 Q2105.52 290.565 2105.52 297.695 Q2105.52 304.801 2107.32 308.366 Q2109.15 311.908 2112.76 311.908 Q2116.4 311.908 2118.2 308.366 Q2120.03 304.801 2120.03 297.695 Q2120.03 290.565 2118.2 287.023 Q2116.4 283.459 2112.76 283.459 M2112.76 279.755 Q2118.57 279.755 2121.63 284.361 Q2124.71 288.945 2124.71 297.695 Q2124.71 306.421 2121.63 311.028 Q2118.57 315.611 2112.76 315.611 Q2106.95 315.611 2103.87 311.028 Q2100.82 306.421 2100.82 297.695 Q2100.82 288.945 2103.87 284.361 Q2106.95 279.755 2112.76 279.755 Z" fill="#000000" fill-rule="evenodd" fill-opacity="1" /><path clip-path="url(#clip330)" d="M2142.93 283.459 Q2139.31 283.459 2137.49 287.023 Q2135.68 290.565 2135.68 297.695 Q2135.68 304.801 2137.49 308.366 Q2139.31 311.908 2142.93 311.908 Q2146.56 311.908 2148.37 308.366 Q2150.19 304.801 2150.19 297.695 Q2150.19 290.565 2148.37 287.023 Q2146.56 283.459 2142.93 283.459 M2142.93 279.755 Q2148.74 279.755 2151.79 284.361 Q2154.87 288.945 2154.87 297.695 Q2154.87 306.421 2151.79 311.028 Q2148.74 315.611 2142.93 315.611 Q2137.12 315.611 2134.04 311.028 Q2130.98 306.421 2130.98 297.695 Q2130.98 288.945 2134.04 284.361 Q2137.12 279.755 2142.93 279.755 Z" fill="#000000" fill-rule="evenodd" fill-opacity="1" /><path clip-path="url(#clip330)" d="M2163.13 280.38 L2181.49 280.38 L2181.49 284.315 L2167.42 284.315 L2167.42 292.787 Q2168.43 292.44 2169.45 292.278 Q2170.47 292.093 2171.49 292.093 Q2177.28 292.093 2180.66 295.264 Q2184.04 298.435 2184.04 303.852 Q2184.04 309.431 2180.56 312.533 Q2177.09 315.611 2170.77 315.611 Q2168.6 315.611 2166.33 315.241 Q2164.08 314.87 2161.68 314.13 L2161.68 309.431 Q2163.76 310.565 2165.98 311.121 Q2168.2 311.676 2170.68 311.676 Q2174.68 311.676 2177.02 309.57 Q2179.36 307.463 2179.36 303.852 Q2179.36 300.241 2177.02 298.134 Q2174.68 296.028 2170.68 296.028 Q2168.81 296.028 2166.93 296.445 Q2165.08 296.861 2163.13 297.741 L2163.13 280.38 Z" fill="#000000" fill-rule="evenodd" fill-opacity="1" /><path clip-path="url(#clip330)" d="M2066.38 171.394 Q2062.76 171.394 2060.94 174.958 Q2059.13 178.5 2059.13 185.63 Q2059.13 192.736 2060.94 196.301 Q2062.76 199.842 2066.38 199.842 Q2070.01 199.842 2071.81 196.301 Q2073.64 192.736 2073.64 185.63 Q2073.64 178.5 2071.81 174.958 Q2070.01 171.394 2066.38 171.394 M2066.38 167.69 Q2072.19 167.69 2075.24 172.296 Q2078.32 176.88 2078.32 185.63 Q2078.32 194.356 2075.24 198.963 Q2072.19 203.546 2066.38 203.546 Q2060.56 203.546 2057.49 198.963 Q2054.43 194.356 2054.43 185.63 Q2054.43 176.88 2057.49 172.296 Q2060.56 167.69 2066.38 167.69 Z" fill="#000000" fill-rule="evenodd" fill-opacity="1" /><path clip-path="url(#clip330)" d="M2086.54 196.995 L2091.42 196.995 L2091.42 202.875 L2086.54 202.875 L2086.54 196.995 Z" fill="#000000" fill-rule="evenodd" fill-opacity="1" /><path clip-path="url(#clip330)" d="M2111.61 171.394 Q2108 171.394 2106.17 174.958 Q2104.36 178.5 2104.36 185.63 Q2104.36 192.736 2106.17 196.301 Q2108 199.842 2111.61 199.842 Q2115.24 199.842 2117.05 196.301 Q2118.87 192.736 2118.87 185.63 Q2118.87 178.5 2117.05 174.958 Q2115.24 171.394 2111.61 171.394 M2111.61 167.69 Q2117.42 167.69 2120.47 172.296 Q2123.55 176.88 2123.55 185.63 Q2123.55 194.356 2120.47 198.963 Q2117.42 203.546 2111.61 203.546 Q2105.8 203.546 2102.72 198.963 Q2099.66 194.356 2099.66 185.63 Q2099.66 176.88 2102.72 172.296 Q2105.8 167.69 2111.61 167.69 Z" fill="#000000" fill-rule="evenodd" fill-opacity="1" /><path clip-path="url(#clip330)" d="M2141.77 171.394 Q2138.16 171.394 2136.33 174.958 Q2134.52 178.5 2134.52 185.63 Q2134.52 192.736 2136.33 196.301 Q2138.16 199.842 2141.77 199.842 Q2145.4 199.842 2147.21 196.301 Q2149.04 192.736 2149.04 185.63 Q2149.04 178.5 2147.21 174.958 Q2145.4 171.394 2141.77 171.394 M2141.77 167.69 Q2147.58 167.69 2150.63 172.296 Q2153.71 176.88 2153.71 185.63 Q2153.71 194.356 2150.63 198.963 Q2147.58 203.546 2141.77 203.546 Q2135.96 203.546 2132.88 198.963 Q2129.82 194.356 2129.82 185.63 Q2129.82 176.88 2132.88 172.296 Q2135.96 167.69 2141.77 167.69 Z" fill="#000000" fill-rule="evenodd" fill-opacity="1" /><path clip-path="url(#clip330)" d="M2172.51 183.731 Q2169.36 183.731 2167.51 185.884 Q2165.68 188.037 2165.68 191.787 Q2165.68 195.514 2167.51 197.69 Q2169.36 199.842 2172.51 199.842 Q2175.66 199.842 2177.49 197.69 Q2179.34 195.514 2179.34 191.787 Q2179.34 188.037 2177.49 185.884 Q2175.66 183.731 2172.51 183.731 M2181.79 169.079 L2181.79 173.338 Q2180.03 172.505 2178.23 172.065 Q2176.44 171.625 2174.68 171.625 Q2170.06 171.625 2167.6 174.75 Q2165.17 177.875 2164.82 184.194 Q2166.19 182.181 2168.25 181.116 Q2170.31 180.028 2172.79 180.028 Q2177.99 180.028 2181 183.199 Q2184.04 186.347 2184.04 191.787 Q2184.04 197.111 2180.89 200.329 Q2177.74 203.546 2172.51 203.546 Q2166.51 203.546 2163.34 198.963 Q2160.17 194.356 2160.17 185.63 Q2160.17 177.435 2164.06 172.574 Q2167.95 167.69 2174.5 167.69 Q2176.26 167.69 2178.04 168.037 Q2179.85 168.384 2181.79 169.079 Z" fill="#000000" fill-rule="evenodd" fill-opacity="1" /><path clip-path="url(#clip330)" d="M1937.61 596.386 L1974.57 596.386 L1974.57 588.619 Q1974.57 578.784 1970.11 574.233 Q1965.66 569.65 1956.04 569.65 Q1946.49 569.65 1942.07 574.233 Q1937.61 578.784 1937.61 588.619 L1937.61 596.386 M1932.33 602.815 L1932.33 589.606 Q1932.33 575.793 1938.09 569.331 Q1943.82 562.87 1956.04 562.87 Q1968.33 562.87 1974.09 569.363 Q1979.85 575.856 1979.85 589.606 L1979.85 602.815 L1932.33 602.815 Z" fill="#000000" fill-rule="evenodd" fill-opacity="1" /><path clip-path="url(#clip330)" d="M1960.56 522.384 L1963.43 522.384 L1963.43 549.311 Q1969.47 548.929 1972.66 545.683 Q1975.81 542.404 1975.81 536.58 Q1975.81 533.206 1974.98 530.055 Q1974.15 526.872 1972.5 523.753 L1978.04 523.753 Q1979.37 526.904 1980.07 530.214 Q1980.77 533.524 1980.77 536.93 Q1980.77 545.46 1975.81 550.457 Q1970.84 555.422 1962.38 555.422 Q1953.62 555.422 1948.5 550.712 Q1943.34 545.969 1943.34 537.948 Q1943.34 530.755 1947.99 526.586 Q1952.61 522.384 1960.56 522.384 M1958.84 528.241 Q1954.04 528.304 1951.17 530.946 Q1948.31 533.556 1948.31 537.885 Q1948.31 542.786 1951.08 545.746 Q1953.85 548.675 1958.88 549.12 L1958.84 528.241 Z" fill="#000000" fill-rule="evenodd" fill-opacity="1" /><path clip-path="url(#clip330)" d="M1958.33 483.14 L1979.85 483.14 L1979.85 488.996 L1958.53 488.996 Q1953.46 488.996 1950.95 490.969 Q1948.44 492.943 1948.44 496.89 Q1948.44 501.632 1951.46 504.369 Q1954.48 507.107 1959.7 507.107 L1979.85 507.107 L1979.85 512.995 L1944.2 512.995 L1944.2 507.107 L1949.74 507.107 Q1946.53 505.006 1944.93 502.173 Q1943.34 499.309 1943.34 495.585 Q1943.34 489.442 1947.16 486.291 Q1950.95 483.14 1958.33 483.14 Z" fill="#000000" fill-rule="evenodd" fill-opacity="1" /><path clip-path="url(#clip330)" d="M1945.25 448.733 L1950.79 448.733 Q1949.52 451.216 1948.88 453.889 Q1948.24 456.563 1948.24 459.427 Q1948.24 463.788 1949.58 465.984 Q1950.92 468.148 1953.59 468.148 Q1955.63 468.148 1956.81 466.589 Q1957.95 465.029 1959 460.319 L1959.45 458.313 Q1960.79 452.075 1963.24 449.465 Q1965.66 446.823 1970.02 446.823 Q1974.98 446.823 1977.88 450.77 Q1980.77 454.685 1980.77 461.56 Q1980.77 464.424 1980.2 467.544 Q1979.66 470.631 1978.55 474.069 L1972.5 474.069 Q1974.19 470.822 1975.04 467.671 Q1975.87 464.52 1975.87 461.433 Q1975.87 457.295 1974.47 455.067 Q1973.04 452.839 1970.46 452.839 Q1968.07 452.839 1966.8 454.462 Q1965.53 456.054 1964.35 461.496 L1963.87 463.533 Q1962.73 468.976 1960.37 471.395 Q1957.98 473.814 1953.85 473.814 Q1948.82 473.814 1946.08 470.249 Q1943.34 466.684 1943.34 460.128 Q1943.34 456.881 1943.82 454.017 Q1944.3 451.152 1945.25 448.733 Z" fill="#000000" fill-rule="evenodd" fill-opacity="1" /><path clip-path="url(#clip330)" d="M1944.2 437.498 L1944.2 431.641 L1979.85 431.641 L1979.85 437.498 L1944.2 437.498 M1930.33 437.498 L1930.33 431.641 L1937.74 431.641 L1937.74 437.498 L1930.33 437.498 Z" fill="#000000" fill-rule="evenodd" fill-opacity="1" /><path clip-path="url(#clip330)" d="M1934.08 413.594 L1944.2 413.594 L1944.2 401.531 L1948.75 401.531 L1948.75 413.594 L1968.11 413.594 Q1972.47 413.594 1973.71 412.417 Q1974.95 411.207 1974.95 407.547 L1974.95 401.531 L1979.85 401.531 L1979.85 407.547 Q1979.85 414.326 1977.34 416.904 Q1974.79 419.483 1968.11 419.483 L1948.75 419.483 L1948.75 423.779 L1944.2 423.779 L1944.2 419.483 L1934.08 419.483 L1934.08 413.594 Z" fill="#000000" fill-rule="evenodd" fill-opacity="1" /><path clip-path="url(#clip330)" d="M1983.16 378.997 Q1989.53 381.479 1991.47 383.835 Q1993.41 386.19 1993.41 390.137 L1993.41 394.815 L1988.51 394.815 L1988.51 391.378 Q1988.51 388.959 1987.36 387.622 Q1986.22 386.285 1981.95 384.662 L1979.28 383.612 L1944.2 398.03 L1944.2 391.824 L1972.08 380.684 L1944.2 369.544 L1944.2 363.337 L1983.16 378.997 Z" fill="#000000" fill-rule="evenodd" fill-opacity="1" /><path clip-path="url(#clip330)" d="M2931.72 65.7705 L2931.72 89.8329 L2924.23 89.8329 L2924.23 27.2059 L2931.72 27.2059 L2931.72 34.0924 Q2934.07 30.0415 2937.64 28.0971 Q2941.24 26.1121 2946.22 26.1121 Q2954.49 26.1121 2959.63 32.6746 Q2964.82 39.2371 2964.82 49.9314 Q2964.82 60.6258 2959.63 67.1883 Q2954.49 73.7508 2946.22 73.7508 Q2941.24 73.7508 2937.64 71.8063 Q2934.07 69.8214 2931.72 65.7705 M2957.08 49.9314 Q2957.08 41.7081 2953.68 37.0496 Q2950.32 32.3505 2944.4 32.3505 Q2938.49 32.3505 2935.08 37.0496 Q2931.72 41.7081 2931.72 49.9314 Q2931.72 58.1548 2935.08 62.8538 Q2938.49 67.5124 2944.4 67.5124 Q2950.32 67.5124 2953.68 62.8538 Q2957.08 58.1548 2957.08 49.9314 Z" fill="#000000" fill-rule="evenodd" fill-opacity="1" /><path clip-path="url(#clip330)" d="M2997.79 49.7694 Q2988.76 49.7694 2985.27 51.8354 Q2981.79 53.9013 2981.79 58.8839 Q2981.79 62.8538 2984.38 65.2034 Q2987.02 67.5124 2991.51 67.5124 Q2997.71 67.5124 3001.44 63.1374 Q3005.21 58.7219 3005.21 51.4303 L3005.21 49.7694 L2997.79 49.7694 M3012.66 46.6907 L3012.66 72.576 L3005.21 72.576 L3005.21 65.6895 Q3002.65 69.8214 2998.85 71.8063 Q2995.04 73.7508 2989.53 73.7508 Q2982.56 73.7508 2978.43 69.8619 Q2974.34 65.9325 2974.34 59.3701 Q2974.34 51.7138 2979.44 47.825 Q2984.59 43.9361 2994.75 43.9361 L3005.21 43.9361 L3005.21 43.2069 Q3005.21 38.0623 3001.8 35.2672 Q2998.44 32.4315 2992.32 32.4315 Q2988.43 32.4315 2984.75 33.3632 Q2981.06 34.295 2977.66 36.1584 L2977.66 29.2718 Q2981.75 27.692 2985.6 26.9223 Q2989.45 26.1121 2993.09 26.1121 Q3002.94 26.1121 3007.8 31.2163 Q3012.66 36.3204 3012.66 46.6907 Z" fill="#000000" fill-rule="evenodd" fill-opacity="1" /><path clip-path="url(#clip330)" d="M3054.3 34.1734 Q3053.05 33.4443 3051.55 33.1202 Q3050.09 32.7556 3048.31 32.7556 Q3041.99 32.7556 3038.58 36.8875 Q3035.22 40.9789 3035.22 48.6757 L3035.22 72.576 L3027.73 72.576 L3027.73 27.2059 L3035.22 27.2059 L3035.22 34.2544 Q3037.57 30.1225 3041.34 28.1376 Q3045.11 26.1121 3050.49 26.1121 Q3051.26 26.1121 3052.2 26.2337 Q3053.13 26.3147 3054.26 26.5172 L3054.3 34.1734 Z" fill="#000000" fill-rule="evenodd" fill-opacity="1" /><path clip-path="url(#clip330)" d="M3082.74 49.7694 Q3073.71 49.7694 3070.22 51.8354 Q3066.74 53.9013 3066.74 58.8839 Q3066.74 62.8538 3069.33 65.2034 Q3071.96 67.5124 3076.46 67.5124 Q3082.66 67.5124 3086.39 63.1374 Q3090.15 58.7219 3090.15 51.4303 L3090.15 49.7694 L3082.74 49.7694 M3097.61 46.6907 L3097.61 72.576 L3090.15 72.576 L3090.15 65.6895 Q3087.6 69.8214 3083.79 71.8063 Q3079.98 73.7508 3074.48 73.7508 Q3067.51 73.7508 3063.38 69.8619 Q3059.28 65.9325 3059.28 59.3701 Q3059.28 51.7138 3064.39 47.825 Q3069.53 43.9361 3079.7 43.9361 L3090.15 43.9361 L3090.15 43.2069 Q3090.15 38.0623 3086.75 35.2672 Q3083.39 32.4315 3077.27 32.4315 Q3073.38 32.4315 3069.7 33.3632 Q3066.01 34.295 3062.61 36.1584 L3062.61 29.2718 Q3066.7 27.692 3070.55 26.9223 Q3074.39 26.1121 3078.04 26.1121 Q3087.88 26.1121 3092.75 31.2163 Q3097.61 36.3204 3097.61 46.6907 Z" fill="#000000" fill-rule="evenodd" fill-opacity="1" /><path clip-path="url(#clip330)" d="M3148.28 35.9153 Q3151.08 30.8922 3154.97 28.5022 Q3158.86 26.1121 3164.12 26.1121 Q3171.21 26.1121 3175.06 31.0947 Q3178.91 36.0368 3178.91 45.1919 L3178.91 72.576 L3171.41 72.576 L3171.41 45.4349 Q3171.41 38.913 3169.1 35.7533 Q3166.8 32.5936 3162.06 32.5936 Q3156.26 32.5936 3152.9 36.4419 Q3149.54 40.2903 3149.54 46.9338 L3149.54 72.576 L3142.04 72.576 L3142.04 45.4349 Q3142.04 38.8725 3139.74 35.7533 Q3137.43 32.5936 3132.61 32.5936 Q3126.89 32.5936 3123.53 36.4824 Q3120.17 40.3308 3120.17 46.9338 L3120.17 72.576 L3112.68 72.576 L3112.68 27.2059 L3120.17 27.2059 L3120.17 34.2544 Q3122.72 30.082 3126.29 28.0971 Q3129.85 26.1121 3134.75 26.1121 Q3139.7 26.1121 3143.14 28.6237 Q3146.62 31.1352 3148.28 35.9153 Z" fill="#000000" fill-rule="evenodd" fill-opacity="1" /><path clip-path="url(#clip330)" d="M3228.25 86.3491 L3228.25 92.1419 L3185.15 92.1419 L3185.15 86.3491 L3228.25 86.3491 Z" fill="#000000" fill-rule="evenodd" fill-opacity="1" /><path clip-path="url(#clip330)" d="M3237.73 65.6895 L3251.1 65.6895 L3251.1 19.5497 L3236.55 22.4663 L3236.55 15.0127 L3251.01 12.096 L3259.2 12.096 L3259.2 65.6895 L3272.56 65.6895 L3272.56 72.576 L3237.73 72.576 L3237.73 65.6895 Z" fill="#000000" fill-rule="evenodd" fill-opacity="1" /><polyline clip-path="url(#clip333)" style="stroke:#009af9; stroke-linecap:butt; stroke-linejoin:round; stroke-width:4; stroke-opacity:1; fill:none" points="
  2292.4,687.964 2301.93,632.27 2311.47,568.479 2321.01,498.825 2330.55,426.488 2340.09,355.248 2349.63,288.976 2359.17,231.081 2368.7,184.006 2378.24,148.904 
  2387.78,125.569 2397.32,112.657 2406.86,108.167 2416.4,109.987 2425.93,116.318 2435.47,125.82 2445.01,137.498 2454.55,150.531 2464.09,164.237 2473.63,178.227 
  2483.17,192.632 2492.7,208.14 2502.24,225.732 2511.78,246.203 2521.32,269.745 2530.86,295.859 2540.4,323.662 2549.93,352.384 2559.47,381.751 2569.01,412.013 
  2578.55,443.61 2588.09,476.679 2597.63,510.7 2607.17,544.462 2616.7,576.37 2626.24,604.916 2635.78,629.121 2645.32,648.78 2654.86,664.45 2664.4,677.228 
  2673.93,688.405 2683.47,699.122 2693.01,710.112 2702.55,721.574 2712.09,733.207 2721.63,744.367 2731.17,754.306 2740.7,762.435 2750.24,768.543 2759.78,772.904 
  2769.32,776.224 2778.86,779.439 2788.4,783.427 2797.93,788.738 2807.47,795.456 2817.01,803.221 2826.55,811.381 2836.09,819.202 2845.63,826.027 2855.17,831.387 
  2864.7,835.03 2874.24,836.939 2883.78,837.321 2893.32,836.577 2902.86,835.225 2912.4,833.776 2921.93,832.607 2931.47,831.881 2941.01,831.56 2950.55,831.495 
  2960.09,831.553 2969.63,831.709 2979.17,832.061 2988.7,832.766 2998.24,833.945 3007.78,835.595 3017.32,837.571 3026.86,839.631 3036.4,841.514 3045.93,843.025 
  3055.47,844.069 3065.01,844.656 3074.55,844.861 3084.09,844.794 3093.63,844.576 3103.17,844.322 3112.7,844.141 3122.24,844.12 3131.78,844.306 3141.32,844.702 
  3150.86,845.272 3160.4,845.971 3169.93,846.769 3179.47,847.666 3189.01,848.683 3198.55,849.829 3208.09,851.072 3217.63,852.322 3227.17,853.446 3236.7,854.297 
  3246.24,854.758 3255.78,854.774 3265.32,854.375 3274.86,853.674 3284.4,852.852 3293.93,852.123 3303.47,851.675 3313.01,851.622 3322.55,851.97 3332.09,852.607 
  3341.63,853.345 3351.17,853.969 3360.7,854.298 3370.24,854.239 3379.78,853.807 3389.32,853.123 3398.86,852.385 3408.4,851.811 3417.93,851.582 3427.47,851.786 
  3437.01,852.402 3446.55,853.314 3456.09,854.357 3465.63,855.37 3475.17,856.236 3484.7,856.899 3494.24,857.359 3503.78,857.651 3513.32,857.819 3522.86,857.909 
  3532.4,857.953 3541.93,857.972 3551.47,857.98 3561.01,857.984 3570.55,857.985 3580.09,857.985 3589.63,857.985 3599.17,857.985 3608.7,857.985 3618.24,857.985 
  3627.78,857.985 3637.32,857.985 3646.86,857.985 3656.4,857.985 3665.93,857.985 3675.47,857.985 3685.01,857.985 3694.55,857.985 3704.09,857.985 3713.63,857.985 
  3723.17,857.985 3732.7,857.985 3742.24,857.985 3751.78,857.985 3761.32,857.984 3770.86,857.983 3780.4,857.978 3789.93,857.965 3799.47,857.936 3809.01,857.875 
  3818.55,857.755 3828.09,857.537 3837.63,857.177 3847.17,856.632 3856.7,855.881 3866.24,854.948 3875.78,853.914 3885.32,852.92 3894.86,852.133 3904.4,851.707 
  
  "/>
</svg>
